<svg width="67" height="67" viewBox="0 0 67 67" fill="none" xmlns="http://www.w3.org/2000/svg">
<g opacity="0.4">
<path d="M30 46.6676H36.6667V32.6676L42 38.001L46.6667 33.3343L33.3333 20.001L20 33.3343L24.6667 38.001L30 32.6676V46.6676ZM33.3333 66.6676C28.7222 66.6676 24.3889 65.7921 20.3333 64.041C16.2778 62.2921 12.75 59.9176 9.75 56.9176C6.75 53.9176 4.37556 50.3899 2.62667 46.3343C0.875556 42.2788 0 37.9454 0 33.3343C0 28.7232 0.875556 24.3899 2.62667 20.3343C4.37556 16.2788 6.75 12.751 9.75 9.75098C12.75 6.75098 16.2778 4.37542 20.3333 2.62431C24.3889 0.875421 28.7222 0.000976562 33.3333 0.000976562C37.9444 0.000976562 42.2778 0.875421 46.3333 2.62431C50.3889 4.37542 53.9167 6.75098 56.9167 9.75098C59.9167 12.751 62.2911 16.2788 64.04 20.3343C65.7911 24.3899 66.6667 28.7232 66.6667 33.3343C66.6667 37.9454 65.7911 42.2788 64.04 46.3343C62.2911 50.3899 59.9167 53.9176 56.9167 56.9176C53.9167 59.9176 50.3889 62.2921 46.3333 64.041C42.2778 65.7921 37.9444 66.6676 33.3333 66.6676ZM33.3333 60.001C40.7778 60.001 47.0833 57.4176 52.25 52.251C57.4167 47.0843 60 40.7788 60 33.3343C60 25.8899 57.4167 19.5843 52.25 14.4176C47.0833 9.25098 40.7778 6.66764 33.3333 6.66764C25.8889 6.66764 19.5833 9.25098 14.4167 14.4176C9.25 19.5843 6.66667 25.8899 6.66667 33.3343C6.66667 40.7788 9.25 47.0843 14.4167 52.251C19.5833 57.4176 25.8889 60.001 33.3333 60.001Z" fill="#E7F8FF"/>
</g>
</svg>
