<svg width="65" height="65" viewBox="0 0 65 65" fill="none" xmlns="http://www.w3.org/2000/svg">
<circle cx="32.5" cy="32.5" r="32.5" fill="#000743" fill-opacity="0.25"/>
<path d="M31.4997 18.5C25.6797 18.5 20.9997 23.21 20.9997 29C20.9997 33.2 23.4447 36.785 26.9997 38.465V45.5H37.4997V41H38.9997C40.6647 41 41.9997 39.665 41.9997 38V33.5H44.2497C44.8797 33.5 45.2397 32.75 44.8797 32.285L41.9997 28.49C41.8675 25.7949 40.7034 23.2541 38.7485 21.3942C36.7936 19.5343 34.198 18.4979 31.4997 18.5ZM31.4997 15.5C38.3697 15.5 44.0847 20.645 44.9097 27.365L47.2497 30.5C48.1197 31.58 48.2697 33.08 47.6397 34.385C47.0997 35.465 46.1397 36.2 44.9997 36.425V38C44.9997 40.79 43.0797 43.145 40.4997 43.805V48.5H23.9997V40.205C20.2497 37.745 17.9997 33.59 17.9997 29C17.9997 21.56 24.0597 15.5 31.4997 15.5ZM26.8497 28.13V27.5C26.8497 27.275 26.8497 27.14 26.9397 26.93L25.6047 25.94C25.4997 25.88 25.4997 25.67 25.4997 25.52L26.7297 23.48C26.8047 23.345 26.9997 23.27 27.1497 23.345L28.6347 23.975C28.9047 23.69 29.2497 23.48 29.6097 23.345L29.8497 21.8C29.8947 21.59 29.9997 21.5 30.1797 21.5H32.5647C32.7147 21.5 32.8497 21.59 32.8497 21.8L33.0597 23.345C33.4047 23.48 33.7497 23.69 34.0497 23.975L35.5947 23.345C35.7297 23.27 35.8497 23.345 35.9397 23.48L37.1397 25.52C37.2147 25.73 37.2147 25.88 37.0647 25.94L35.8047 26.93C35.8047 27.14 35.8497 27.35 35.8497 27.5C35.8497 27.71 35.8047 27.92 35.8047 28.13L37.0647 29.105C37.2147 29.18 37.2147 29.315 37.1397 29.465L35.9397 31.565C35.8497 31.715 35.7297 31.715 35.5947 31.715L34.1097 31.07C33.7497 31.355 33.4797 31.505 33.0597 31.64L32.8497 33.26C32.8497 33.395 32.7147 33.5 32.5647 33.5H30.1797C29.9997 33.5 29.8947 33.395 29.8497 33.26L29.6097 31.64C29.2497 31.505 28.9047 31.355 28.6347 31.085L27.1497 31.715C26.9997 31.715 26.8047 31.715 26.7297 31.565L25.4997 29.465C25.4997 29.315 25.4997 29.18 25.6047 29.105L26.8497 28.13ZM31.3497 29.675C32.5197 29.675 33.4797 28.685 33.4797 27.5C33.4797 26.315 32.5647 25.385 31.3497 25.385C30.1797 25.385 29.1897 26.3 29.1897 27.5C29.1897 28.7 30.1797 29.675 31.3497 29.675Z" fill="white"/>
</svg>
