<svg width="65" height="65" viewBox="0 0 65 65" fill="none" xmlns="http://www.w3.org/2000/svg">
<circle cx="32.5" cy="32.5007" r="32.5" fill="#2D2D2D"/>
<g style="mix-blend-mode:screen">
<path d="M27.0319 32.5007L29.5722 29.9605C29.9167 29.616 30.0889 29.2142 30.0889 28.7549C30.0889 28.2956 29.9167 27.8938 29.5722 27.5493C29.2278 27.2049 28.819 27.0327 28.346 27.0327C27.8718 27.0327 27.4625 27.2049 27.1181 27.5493L23.3722 31.2952C23.2 31.4674 23.0783 31.654 23.0071 31.8549C22.9348 32.0558 22.8986 32.2711 22.8986 32.5007C22.8986 32.7304 22.9348 32.9456 23.0071 33.1466C23.0783 33.3475 23.2 33.5341 23.3722 33.7063L27.1181 37.4521C27.4625 37.7966 27.8718 37.9688 28.346 37.9688C28.819 37.9688 29.2278 37.7966 29.5722 37.4521C29.9167 37.1077 30.0889 36.7058 30.0889 36.2466C30.0889 35.7873 29.9167 35.3855 29.5722 35.041L27.0319 32.5007ZM37.9681 32.5007L35.4278 35.041C35.0833 35.3855 34.9111 35.7873 34.9111 36.2466C34.9111 36.7058 35.0833 37.1077 35.4278 37.4521C35.7722 37.7966 36.1815 37.9688 36.6557 37.9688C37.1288 37.9688 37.5375 37.7966 37.8819 37.4521L41.6278 33.7063C41.8 33.5341 41.9217 33.3475 41.9929 33.1466C42.0652 32.9456 42.1014 32.7304 42.1014 32.5007C42.1014 32.2711 42.0652 32.0558 41.9929 31.8549C41.9217 31.654 41.8 31.4674 41.6278 31.2952L37.8819 27.5493C37.7097 27.3771 37.5163 27.248 37.3016 27.1618C37.0857 27.0757 36.8704 27.0327 36.6557 27.0327C36.4399 27.0327 36.2246 27.0757 36.0099 27.1618C35.794 27.248 35.6 27.3771 35.4278 27.5493C35.0833 27.8938 34.9111 28.2956 34.9111 28.7549C34.9111 29.2142 35.0833 29.616 35.4278 29.9605L37.9681 32.5007ZM20.4444 48.0007C19.4972 48.0007 18.6861 47.6638 18.0109 46.9898C17.337 46.3147 17 45.5035 17 44.5563V20.4452C17 19.498 17.337 18.6868 18.0109 18.0117C18.6861 17.3377 19.4972 17.0007 20.4444 17.0007H44.5556C45.5028 17.0007 46.3139 17.3377 46.9891 18.0117C47.663 18.6868 48 19.498 48 20.4452V44.5563C48 45.5035 47.663 46.3147 46.9891 46.9898C46.3139 47.6638 45.5028 48.0007 44.5556 48.0007H20.4444ZM20.4444 44.5563H44.5556V20.4452H20.4444V44.5563Z" fill="url(#paint0_linear_283_9630)"/>
</g>
<g style="mix-blend-mode:screen">
<path d="M27.0319 32.5007L29.5722 29.9605C29.9167 29.616 30.0889 29.2142 30.0889 28.7549C30.0889 28.2956 29.9167 27.8938 29.5722 27.5493C29.2278 27.2049 28.819 27.0327 28.346 27.0327C27.8718 27.0327 27.4625 27.2049 27.1181 27.5493L23.3722 31.2952C23.2 31.4674 23.0783 31.654 23.0071 31.8549C22.9348 32.0558 22.8986 32.2711 22.8986 32.5007C22.8986 32.7304 22.9348 32.9456 23.0071 33.1466C23.0783 33.3475 23.2 33.5341 23.3722 33.7063L27.1181 37.4521C27.4625 37.7966 27.8718 37.9688 28.346 37.9688C28.819 37.9688 29.2278 37.7966 29.5722 37.4521C29.9167 37.1077 30.0889 36.7058 30.0889 36.2466C30.0889 35.7873 29.9167 35.3855 29.5722 35.041L27.0319 32.5007ZM37.9681 32.5007L35.4278 35.041C35.0833 35.3855 34.9111 35.7873 34.9111 36.2466C34.9111 36.7058 35.0833 37.1077 35.4278 37.4521C35.7722 37.7966 36.1815 37.9688 36.6557 37.9688C37.1288 37.9688 37.5375 37.7966 37.8819 37.4521L41.6278 33.7063C41.8 33.5341 41.9217 33.3475 41.9929 33.1466C42.0652 32.9456 42.1014 32.7304 42.1014 32.5007C42.1014 32.2711 42.0652 32.0558 41.9929 31.8549C41.9217 31.654 41.8 31.4674 41.6278 31.2952L37.8819 27.5493C37.7097 27.3771 37.5163 27.248 37.3016 27.1618C37.0857 27.0757 36.8704 27.0327 36.6557 27.0327C36.4399 27.0327 36.2246 27.0757 36.0099 27.1618C35.794 27.248 35.6 27.3771 35.4278 27.5493C35.0833 27.8938 34.9111 28.2956 34.9111 28.7549C34.9111 29.2142 35.0833 29.616 35.4278 29.9605L37.9681 32.5007ZM20.4444 48.0007C19.4972 48.0007 18.6861 47.6638 18.0109 46.9898C17.337 46.3147 17 45.5035 17 44.5563V20.4452C17 19.498 17.337 18.6868 18.0109 18.0117C18.6861 17.3377 19.4972 17.0007 20.4444 17.0007H44.5556C45.5028 17.0007 46.3139 17.3377 46.9891 18.0117C47.663 18.6868 48 19.498 48 20.4452V44.5563C48 45.5035 47.663 46.3147 46.9891 46.9898C46.3139 47.6638 45.5028 48.0007 44.5556 48.0007H20.4444ZM20.4444 44.5563H44.5556V20.4452H20.4444V44.5563Z" fill="url(#paint1_linear_283_9630)"/>
</g>
<defs>
<linearGradient id="paint0_linear_283_9630" x1="48" y1="17.0007" x2="35.0173" y2="54.276" gradientUnits="userSpaceOnUse">
<stop stop-color="#FF0000"/>
<stop offset="1" stop-color="#0066FF"/>
</linearGradient>
<linearGradient id="paint1_linear_283_9630" x1="48" y1="17.0007" x2="35.0173" y2="54.276" gradientUnits="userSpaceOnUse">
<stop stop-color="#FF0000"/>
<stop offset="1" stop-color="#0066FF"/>
</linearGradient>
</defs>
</svg>
