<svg width="43" height="32" viewBox="0 0 43 32" fill="none" xmlns="http://www.w3.org/2000/svg">
<path d="M25.4852 12.1576V8.91211C26.5352 8.46666 27.6093 8.13257 28.7077 7.90984C29.8061 7.68712 30.9592 7.57575 32.167 7.57575C32.9943 7.57575 33.8056 7.63939 34.6011 7.76666C35.3965 7.89393 36.1761 8.05302 36.9397 8.24393V11.2985C36.1761 11.0121 35.4042 10.797 34.624 10.6532C33.8438 10.5094 33.0248 10.4381 32.167 10.4394C30.9579 10.4394 29.7965 10.5908 28.6829 10.8938C27.5693 11.1967 26.5033 11.6179 25.4852 12.1576ZM25.4852 22.6576V19.4121C26.5352 18.9667 27.6093 18.6326 28.7077 18.4098C29.8061 18.1871 30.9592 18.0757 32.167 18.0757C32.9943 18.0757 33.8056 18.1394 34.6011 18.2667C35.3965 18.3939 36.1761 18.553 36.9397 18.7439V21.7985C36.1761 21.5121 35.4042 21.297 34.624 21.1532C33.8438 21.0094 33.0248 20.9381 32.167 20.9394C30.9579 20.9394 29.7965 21.0826 28.6829 21.3689C27.5693 21.6553 26.5033 22.0848 25.4852 22.6576ZM25.4852 17.4076V14.1621C26.5352 13.7167 27.6093 13.3826 28.7077 13.1598C29.8061 12.9371 30.9592 12.8257 32.167 12.8257C32.9943 12.8257 33.8056 12.8894 34.6011 13.0167C35.3965 13.1439 36.1761 13.303 36.9397 13.4939V16.5485C36.1761 16.2621 35.4042 16.047 34.624 15.9032C33.8438 15.7594 33.0248 15.6881 32.167 15.6894C30.9579 15.6894 29.7965 15.8408 28.6829 16.1437C27.5693 16.4467 26.5033 16.8679 25.4852 17.4076ZM11.167 23.803C12.6624 23.803 14.1184 23.9704 15.535 24.3051C16.9515 24.6398 18.3592 25.1407 19.7579 25.8076V7.00302C18.4533 6.23939 17.0693 5.66666 15.6056 5.28484C14.142 4.90303 12.6624 4.71212 11.167 4.71212C10.0215 4.71212 8.88372 4.82348 7.75354 5.04621C6.62335 5.26893 5.5339 5.60302 4.48517 6.04848V24.9485C5.59881 24.5667 6.70481 24.2803 7.80317 24.0894C8.90153 23.8985 10.0228 23.803 11.167 23.803ZM23.5761 25.8076C24.9761 25.1394 26.3837 24.6379 27.799 24.3032C29.2143 23.9685 30.6703 23.8017 32.167 23.803C33.3124 23.803 34.4343 23.8985 35.5327 24.0894C36.6311 24.2803 37.7364 24.5667 38.8488 24.9485V6.04848C37.7988 5.60302 36.7087 5.26893 35.5785 5.04621C34.4483 4.82348 33.3112 4.71212 32.167 4.71212C30.6715 4.71212 29.192 4.90303 27.7283 5.28484C26.2647 5.66666 24.8806 6.23939 23.5761 7.00302V25.8076ZM21.667 31.4394C20.1397 30.2303 18.4852 29.2917 16.7034 28.6235C14.9215 27.9553 13.0761 27.6212 11.167 27.6212C9.83063 27.6212 8.51781 27.7962 7.22854 28.1462C5.93926 28.4962 4.70663 28.9894 3.53063 29.6257C2.86245 29.9757 2.21845 29.9598 1.59863 29.578C0.97881 29.1962 0.668265 28.6394 0.666992 27.9076V4.90303C0.666992 4.55303 0.75481 4.21893 0.930447 3.90075C1.10608 3.58257 1.36826 3.34393 1.71699 3.18484C3.18063 2.42121 4.7079 1.84848 6.29881 1.46666C7.88972 1.08485 9.51244 0.893936 11.167 0.893936C13.0124 0.893936 14.8184 1.13257 16.585 1.60984C18.3515 2.08712 20.0455 2.80303 21.667 3.75757C23.2897 2.80303 24.9843 2.08712 26.7509 1.60984C28.5174 1.13257 30.3228 0.893936 32.167 0.893936C33.8215 0.893936 35.4443 1.08485 37.0352 1.46666C38.6261 1.84848 40.1533 2.42121 41.617 3.18484C41.967 3.34393 42.2298 3.58257 42.4054 3.90075C42.5811 4.21893 42.6682 4.55303 42.667 4.90303V27.9076C42.667 28.6394 42.3571 29.1962 41.7373 29.578C41.1174 29.9598 40.4728 29.9757 39.8033 29.6257C38.6261 28.9894 37.3934 28.4962 36.1054 28.1462C34.8174 27.7962 33.5046 27.6212 32.167 27.6212C30.2579 27.6212 28.4124 27.9553 26.6306 28.6235C24.8488 29.2917 23.1943 30.2303 21.667 31.4394Z" fill="#F1F1F1"/>
</svg>
