<svg width="40" height="40" viewBox="0 0 40 40" fill="none" xmlns="http://www.w3.org/2000/svg">
<path d="M23.0909 17.2187V14.5625C23.9409 14.1979 24.8105 13.9245 25.6996 13.7422C26.5888 13.5599 27.5222 13.4687 28.5 13.4688C29.1697 13.4688 29.8265 13.5208 30.4704 13.625C31.1144 13.7292 31.7454 13.8594 32.3636 14.0156V16.5156C31.7454 16.2812 31.1206 16.1052 30.489 15.9875C29.8574 15.8698 29.1944 15.8115 28.5 15.8125C27.5212 15.8125 26.5811 15.9365 25.6795 16.1844C24.778 16.4323 23.9151 16.7771 23.0909 17.2187ZM23.0909 25.8125V23.1562C23.9409 22.7917 24.8105 22.5182 25.6996 22.3359C26.5888 22.1536 27.5222 22.0625 28.5 22.0625C29.1697 22.0625 29.8265 22.1146 30.4704 22.2188C31.1144 22.3229 31.7454 22.4531 32.3636 22.6094V25.1094C31.7454 24.875 31.1206 24.699 30.489 24.5813C29.8574 24.4635 29.1944 24.4052 28.5 24.4062C27.5212 24.4062 26.5811 24.5234 25.6795 24.7578C24.778 24.9922 23.9151 25.3437 23.0909 25.8125ZM23.0909 21.5156V18.8594C23.9409 18.4948 24.8105 18.2214 25.6996 18.0391C26.5888 17.8568 27.5222 17.7656 28.5 17.7656C29.1697 17.7656 29.8265 17.8177 30.4704 17.9219C31.1144 18.026 31.7454 18.1563 32.3636 18.3125V20.8125C31.7454 20.5781 31.1206 20.4021 30.489 20.2844C29.8574 20.1667 29.1944 20.1083 28.5 20.1094C27.5212 20.1094 26.5811 20.2333 25.6795 20.4812C24.778 20.7292 23.9151 21.074 23.0909 21.5156ZM11.5 26.75C12.7106 26.75 13.8893 26.887 15.036 27.1609C16.1827 27.4349 17.3222 27.8448 18.4545 28.3906V13C17.3985 12.375 16.278 11.9063 15.0932 11.5938C13.9083 11.2813 12.7106 11.125 11.5 11.125C10.5727 11.125 9.65163 11.2161 8.73673 11.3984C7.82182 11.5807 6.93988 11.8542 6.09091 12.2187V27.6875C6.99242 27.375 7.88776 27.1406 8.77691 26.9844C9.66606 26.8281 10.5738 26.75 11.5 26.75ZM21.5454 28.3906C22.6788 27.8437 23.8183 27.4333 24.964 27.1594C26.1097 26.8854 27.2884 26.749 28.5 26.75C29.4273 26.75 30.3355 26.8281 31.2246 26.9844C32.1138 27.1406 33.0086 27.375 33.9091 27.6875V12.2187C33.0591 11.8542 32.1766 11.5807 31.2617 11.3984C30.3468 11.2161 29.4262 11.125 28.5 11.125C27.2894 11.125 26.0917 11.2813 24.9068 11.5938C23.722 11.9063 22.6015 12.375 21.5454 13V28.3906ZM20 33C18.7636 32.0104 17.4242 31.2422 15.9818 30.6953C14.5394 30.1484 13.0455 29.875 11.5 29.875C10.4182 29.875 9.35542 30.0182 8.31173 30.3047C7.26803 30.5911 6.27018 30.9948 5.31818 31.5156C4.77727 31.8021 4.25594 31.7891 3.75418 31.4766C3.25242 31.1641 3.00103 30.7083 3 30.1094V11.2812C3 10.9948 3.07109 10.7214 3.21327 10.4609C3.35545 10.2005 3.5677 10.0052 3.85 9.875C5.03485 9.25 6.27121 8.78125 7.55909 8.46875C8.84697 8.15625 10.1606 8 11.5 8C12.9939 8 14.4559 8.19531 15.886 8.58594C17.3161 8.97656 18.6874 9.5625 20 10.3438C21.3136 9.5625 22.6855 8.97656 24.1155 8.58594C25.5456 8.19531 27.0071 8 28.5 8C29.8394 8 31.153 8.15625 32.4409 8.46875C33.7288 8.78125 34.9651 9.25 36.15 9.875C36.4333 10.0052 36.6461 10.2005 36.7883 10.4609C36.9304 10.7214 37.001 10.9948 37 11.2812V30.1094C37 30.7083 36.7491 31.1641 36.2474 31.4766C35.7456 31.7891 35.2237 31.8021 34.6818 31.5156C33.7288 30.9948 32.7309 30.5911 31.6883 30.3047C30.6456 30.0182 29.5828 29.875 28.5 29.875C26.9545 29.875 25.4606 30.1484 24.0182 30.6953C22.5758 31.2422 21.2364 32.0104 20 33Z" fill="#0E5EF1"/>
</svg>
