<svg width="78" height="78" viewBox="0 0 78 78" fill="none" xmlns="http://www.w3.org/2000/svg">
<circle cx="39" cy="39.0007" r="39" fill="#2A3571"/>
<path fill-rule="evenodd" clip-rule="evenodd" d="M20.1172 33.3014C20.1172 32.473 20.787 31.8014 21.6133 31.8014C30.4609 31.8014 36.4914 33.4249 39.1172 34.5668C41.7429 33.4249 47.7735 31.8014 56.6211 31.8014C57.4474 31.8014 58.1172 32.473 58.1172 33.3014V54.7514C58.1172 55.5798 57.4474 56.2514 56.6211 56.2514C54.3602 56.2514 50.8857 56.2535 47.5922 56.7239C45.9472 56.9589 44.3995 57.304 43.1008 57.7989C41.7888 58.2988 40.843 58.9092 40.2725 59.6044C39.9883 59.9508 39.5645 60.1514 39.1172 60.1514C38.6699 60.1514 38.2461 59.9508 37.9619 59.6044C37.3914 58.9092 36.4456 58.2988 35.1336 57.7989C33.8348 57.304 32.2871 56.9589 30.6422 56.7239C27.3487 56.2535 23.8742 56.2514 21.6133 56.2514C20.787 56.2514 20.1172 55.5798 20.1172 54.7514V33.3014ZM37.6211 37.1905C35.474 36.3261 30.5246 34.9806 23.1093 34.8177V53.2552C25.3118 53.2706 28.2342 53.3497 31.0641 53.7539C32.8324 54.0065 34.6167 54.3926 36.1966 54.9946C36.6835 55.1801 37.1619 55.3903 37.6211 55.6295V37.1905ZM40.6133 55.6295C41.0724 55.3903 41.5509 55.1801 42.0378 54.9946C43.6177 54.3926 45.402 54.0065 47.1702 53.7539C50.0001 53.3497 52.9226 53.2706 55.1251 53.2552V34.8177C47.7098 34.9806 42.7604 36.3261 40.6133 37.1905V55.6295Z" fill="#F1F1F1"/>
<path fill-rule="evenodd" clip-rule="evenodd" d="M39.1193 21.1514C35.6491 21.1514 32.8359 23.972 32.8359 27.4514C32.8359 30.9308 35.6491 33.7514 39.1193 33.7514C42.5896 33.7514 45.4028 30.9308 45.4028 27.4514C45.4028 23.972 42.5896 21.1514 39.1193 21.1514ZM29.8438 27.4514C29.8438 22.3152 33.9966 18.1514 39.1193 18.1514C44.2421 18.1514 48.3949 22.3152 48.3949 27.4514C48.3949 32.5877 44.2421 36.7514 39.1193 36.7514C33.9966 36.7514 29.8438 32.5877 29.8438 27.4514Z" fill="#F1F1F1"/>
</svg>
