<svg width="78" height="78" viewBox="0 0 78 78" fill="none" xmlns="http://www.w3.org/2000/svg">
<circle cx="39" cy="39" r="39" fill="#1C2551"/>
<path fill-rule="evenodd" clip-rule="evenodd" d="M20.1172 33.3007C20.1172 32.4722 20.787 31.8007 21.6133 31.8007C30.4609 31.8007 36.4914 33.4242 39.1172 34.566C41.7429 33.4242 47.7735 31.8007 56.6211 31.8007C57.4474 31.8007 58.1172 32.4722 58.1172 33.3007V54.7507C58.1172 55.5791 57.4474 56.2507 56.6211 56.2507C54.3602 56.2507 50.8857 56.2528 47.5922 56.7232C45.9472 56.9581 44.3995 57.3033 43.1008 57.7981C41.7888 58.2981 40.843 58.9085 40.2725 59.6037C39.9883 59.95 39.5645 60.1507 39.1172 60.1507C38.6699 60.1507 38.2461 59.95 37.9619 59.6037C37.3914 58.9085 36.4456 58.2981 35.1336 57.7981C33.8348 57.3033 32.2871 56.9581 30.6422 56.7232C27.3487 56.2528 23.8742 56.2507 21.6133 56.2507C20.787 56.2507 20.1172 55.5791 20.1172 54.7507V33.3007ZM37.6211 37.1898C35.474 36.3254 30.5246 34.9799 23.1093 34.817V53.2544C25.3118 53.2699 28.2342 53.349 31.0641 53.7532C32.8324 54.0057 34.6167 54.3918 36.1966 54.9938C36.6835 55.1794 37.1619 55.3895 37.6211 55.6288V37.1898ZM40.6133 55.6288C41.0724 55.3895 41.5509 55.1794 42.0378 54.9938C43.6177 54.3918 45.402 54.0057 47.1702 53.7532C50.0001 53.349 52.9226 53.2699 55.1251 53.2544V34.817C47.7098 34.9799 42.7604 36.3254 40.6133 37.1898V55.6288Z" fill="#F1F1F1"/>
<path fill-rule="evenodd" clip-rule="evenodd" d="M39.1174 21.1507C35.6471 21.1507 32.8339 23.9713 32.8339 27.4507C32.8339 30.9301 35.6471 33.7507 39.1174 33.7507C42.5877 33.7507 45.4009 30.9301 45.4009 27.4507C45.4009 23.9713 42.5877 21.1507 39.1174 21.1507ZM29.8418 27.4507C29.8418 22.3144 33.9946 18.1507 39.1174 18.1507C44.2402 18.1507 48.393 22.3144 48.393 27.4507C48.393 32.5869 44.2402 36.7507 39.1174 36.7507C33.9946 36.7507 29.8418 32.5869 29.8418 27.4507Z" fill="#F1F1F1"/>
</svg>
