<svg width="65" height="65" viewBox="0 0 65 65" fill="none" xmlns="http://www.w3.org/2000/svg">
<circle cx="32.5" cy="32.5" r="32.5" fill="#000743" fill-opacity="0.25"/>
<g style="mix-blend-mode:plus-lighter">
<path d="M32.7928 46.5C32.9079 46.5 33.023 46.4708 33.1381 46.4125C33.2532 46.3542 33.3395 46.2958 33.3971 46.2375L47.5543 31.8875C47.8996 31.5375 48.1517 31.1438 48.3105 30.7063C48.4693 30.2688 48.5482 29.8313 48.547 29.3938C48.547 28.9271 48.4676 28.482 48.3088 28.0585C48.1499 27.635 47.8984 27.2634 47.5543 26.9437L40.2167 19.5062C39.9002 19.1562 39.533 18.9008 39.1152 18.7398C38.6974 18.5788 38.2595 18.4988 37.8014 18.5C37.3697 18.5 36.9381 18.5805 36.5065 18.7415C36.0749 18.9025 35.6864 19.1574 35.3411 19.5062L34.8663 19.9875L38.0603 23.2687C38.492 23.6771 38.8085 24.1438 39.0099 24.6688C39.2113 25.1938 39.312 25.7479 39.312 26.3313C39.312 27.5563 38.9023 28.5847 38.0828 29.4165C37.2633 30.2483 36.2487 30.6637 35.039 30.6625C34.4635 30.6625 33.9093 30.5604 33.3764 30.3562C32.8435 30.1521 32.3762 29.8458 31.9745 29.4375L28.7356 26.2L21.1822 33.8562C21.0959 33.9437 21.0308 34.0388 20.9871 34.1415C20.9434 34.2442 20.9221 34.3527 20.9232 34.467C20.9232 34.7003 21.0095 34.9121 21.1822 35.1023C21.3548 35.2924 21.5563 35.3869 21.7865 35.3858C21.9016 35.3858 22.0167 35.3566 22.1318 35.2982C22.2469 35.2399 22.3332 35.1816 22.3907 35.1232L28.2608 29.1732L30.6779 31.6232L24.851 37.5733C24.7647 37.6608 24.6996 37.7558 24.6559 37.8585C24.6121 37.9612 24.5909 38.0702 24.592 38.1857C24.592 38.4191 24.6783 38.6232 24.851 38.7982C25.0236 38.9732 25.225 39.0607 25.4552 39.0607C25.5703 39.0607 25.6854 39.0316 25.8005 38.9733C25.9156 38.9149 26.002 38.8566 26.0595 38.7982L31.9296 32.892L34.3467 35.342L28.5198 41.292C28.4334 41.3503 28.3684 41.4378 28.3247 41.5545C28.2809 41.6712 28.2596 41.7878 28.2608 41.9045C28.2608 42.1378 28.3471 42.342 28.5198 42.517C28.6924 42.692 28.8938 42.7795 29.124 42.7795C29.2391 42.7795 29.3473 42.7573 29.4486 42.713C29.5499 42.6687 29.6431 42.6033 29.7283 42.517L35.5984 36.6107L38.0154 39.0607L32.1454 45.0108C32.0591 45.0983 31.994 45.1928 31.9503 45.2943C31.9066 45.3958 31.8853 45.5054 31.8864 45.6233C31.8864 45.8566 31.9802 46.0608 32.1678 46.2358C32.3554 46.4108 32.5638 46.5 32.7928 46.5ZM32.7497 50C31.685 50 30.7423 49.6424 29.9217 48.9272C29.101 48.2121 28.6193 47.3155 28.4766 46.2375C27.4983 46.0917 26.6782 45.6833 26.0164 45.0125C25.3545 44.3417 24.9517 43.5104 24.8078 42.5188C23.8295 42.3729 23.0163 41.957 22.3683 41.271C21.7203 40.585 21.3249 39.7613 21.1822 38.8C20.0887 38.6542 19.1967 38.1729 18.5061 37.3562C17.8155 36.5396 17.4702 35.5771 17.4702 34.4688C17.4702 33.8854 17.5784 33.3243 17.7948 32.7853C18.0112 32.2463 18.3202 31.772 18.7219 31.3625L28.7356 21.2562L34.3898 26.9875C34.4474 27.075 34.5337 27.1409 34.6488 27.1853C34.7639 27.2296 34.879 27.2512 34.9941 27.25C35.2531 27.25 35.4689 27.1701 35.6415 27.0102C35.8142 26.8504 35.9005 26.6387 35.9005 26.375C35.9005 26.2583 35.8786 26.1417 35.8349 26.025C35.7912 25.9083 35.7267 25.8208 35.6415 25.7625L29.4693 19.5062C29.1528 19.1562 28.7862 18.9008 28.3696 18.7398C27.9529 18.5788 27.5138 18.4988 27.0522 18.5C26.6206 18.5 26.189 18.5805 25.7574 18.7415C25.3258 18.9025 24.9373 19.1574 24.592 19.5062L18.5061 25.7188C18.2472 25.9813 18.0313 26.2875 17.8587 26.6375C17.6861 26.9875 17.571 27.3375 17.5134 27.6875C17.4559 28.0375 17.4559 28.3951 17.5134 28.7602C17.571 29.1254 17.6861 29.4678 17.8587 29.7875L15.3553 32.325C14.8661 31.6542 14.5064 30.918 14.2762 30.1165C14.046 29.315 13.9597 28.5053 14.0173 27.6875C14.0748 26.8708 14.2762 26.0758 14.6215 25.3023C14.9668 24.5288 15.4416 23.8363 16.0459 23.225L22.1318 17.0562C22.8224 16.3854 23.5924 15.875 24.4418 15.525C25.2912 15.175 26.1614 15 27.0522 15C27.9443 15 28.815 15.175 29.6644 15.525C30.5139 15.875 31.2689 16.3854 31.9296 17.0562L32.4044 17.5375L32.8791 17.0562C33.5697 16.3854 34.3398 15.875 35.1892 15.525C36.0386 15.175 36.9088 15 37.7996 15C38.6917 15 39.5624 15.175 40.4118 15.525C41.2612 15.875 42.0163 16.3854 42.677 17.0562L49.9714 24.45C50.6332 25.1208 51.1368 25.8938 51.4821 26.7688C51.8274 27.6438 52 28.5333 52 29.4375C52 30.3417 51.8274 31.2242 51.4821 32.0852C51.1368 32.9462 50.6332 33.7116 49.9714 34.3812L35.8142 48.6875C35.4113 49.0958 34.9435 49.4167 34.4105 49.65C33.8776 49.8833 33.324 50 32.7497 50Z" fill="url(#paint0_linear_1049_1047)"/>
</g>
<g style="mix-blend-mode:screen">
<path d="M32.7928 46.5C32.9079 46.5 33.023 46.4708 33.1381 46.4125C33.2532 46.3542 33.3395 46.2958 33.3971 46.2375L47.5543 31.8875C47.8996 31.5375 48.1517 31.1438 48.3105 30.7063C48.4693 30.2688 48.5482 29.8313 48.547 29.3938C48.547 28.9271 48.4676 28.482 48.3088 28.0585C48.1499 27.635 47.8984 27.2634 47.5543 26.9437L40.2167 19.5062C39.9002 19.1562 39.533 18.9008 39.1152 18.7398C38.6974 18.5788 38.2595 18.4988 37.8014 18.5C37.3697 18.5 36.9381 18.5805 36.5065 18.7415C36.0749 18.9025 35.6864 19.1574 35.3411 19.5062L34.8663 19.9875L38.0603 23.2687C38.492 23.6771 38.8085 24.1438 39.0099 24.6688C39.2113 25.1938 39.312 25.7479 39.312 26.3313C39.312 27.5563 38.9023 28.5847 38.0828 29.4165C37.2633 30.2483 36.2487 30.6637 35.039 30.6625C34.4635 30.6625 33.9093 30.5604 33.3764 30.3562C32.8435 30.1521 32.3762 29.8458 31.9745 29.4375L28.7356 26.2L21.1822 33.8562C21.0959 33.9437 21.0308 34.0388 20.9871 34.1415C20.9434 34.2442 20.9221 34.3527 20.9232 34.467C20.9232 34.7003 21.0095 34.9121 21.1822 35.1023C21.3548 35.2924 21.5563 35.3869 21.7865 35.3858C21.9016 35.3858 22.0167 35.3566 22.1318 35.2982C22.2469 35.2399 22.3332 35.1816 22.3907 35.1232L28.2608 29.1732L30.6779 31.6232L24.851 37.5733C24.7647 37.6608 24.6996 37.7558 24.6559 37.8585C24.6121 37.9612 24.5909 38.0702 24.592 38.1857C24.592 38.4191 24.6783 38.6232 24.851 38.7982C25.0236 38.9732 25.225 39.0607 25.4552 39.0607C25.5703 39.0607 25.6854 39.0316 25.8005 38.9733C25.9156 38.9149 26.002 38.8566 26.0595 38.7982L31.9296 32.892L34.3467 35.342L28.5198 41.292C28.4334 41.3503 28.3684 41.4378 28.3247 41.5545C28.2809 41.6712 28.2596 41.7878 28.2608 41.9045C28.2608 42.1378 28.3471 42.342 28.5198 42.517C28.6924 42.692 28.8938 42.7795 29.124 42.7795C29.2391 42.7795 29.3473 42.7573 29.4486 42.713C29.5499 42.6687 29.6431 42.6033 29.7283 42.517L35.5984 36.6107L38.0154 39.0607L32.1454 45.0108C32.0591 45.0983 31.994 45.1928 31.9503 45.2943C31.9066 45.3958 31.8853 45.5054 31.8864 45.6233C31.8864 45.8566 31.9802 46.0608 32.1678 46.2358C32.3554 46.4108 32.5638 46.5 32.7928 46.5ZM32.7497 50C31.685 50 30.7423 49.6424 29.9217 48.9272C29.101 48.2121 28.6193 47.3155 28.4766 46.2375C27.4983 46.0917 26.6782 45.6833 26.0164 45.0125C25.3545 44.3417 24.9517 43.5104 24.8078 42.5188C23.8295 42.3729 23.0163 41.957 22.3683 41.271C21.7203 40.585 21.3249 39.7613 21.1822 38.8C20.0887 38.6542 19.1967 38.1729 18.5061 37.3562C17.8155 36.5396 17.4702 35.5771 17.4702 34.4688C17.4702 33.8854 17.5784 33.3243 17.7948 32.7853C18.0112 32.2463 18.3202 31.772 18.7219 31.3625L28.7356 21.2562L34.3898 26.9875C34.4474 27.075 34.5337 27.1409 34.6488 27.1853C34.7639 27.2296 34.879 27.2512 34.9941 27.25C35.2531 27.25 35.4689 27.1701 35.6415 27.0102C35.8142 26.8504 35.9005 26.6387 35.9005 26.375C35.9005 26.2583 35.8786 26.1417 35.8349 26.025C35.7912 25.9083 35.7267 25.8208 35.6415 25.7625L29.4693 19.5062C29.1528 19.1562 28.7862 18.9008 28.3696 18.7398C27.9529 18.5788 27.5138 18.4988 27.0522 18.5C26.6206 18.5 26.189 18.5805 25.7574 18.7415C25.3258 18.9025 24.9373 19.1574 24.592 19.5062L18.5061 25.7188C18.2472 25.9813 18.0313 26.2875 17.8587 26.6375C17.6861 26.9875 17.571 27.3375 17.5134 27.6875C17.4559 28.0375 17.4559 28.3951 17.5134 28.7602C17.571 29.1254 17.6861 29.4678 17.8587 29.7875L15.3553 32.325C14.8661 31.6542 14.5064 30.918 14.2762 30.1165C14.046 29.315 13.9597 28.5053 14.0173 27.6875C14.0748 26.8708 14.2762 26.0758 14.6215 25.3023C14.9668 24.5288 15.4416 23.8363 16.0459 23.225L22.1318 17.0562C22.8224 16.3854 23.5924 15.875 24.4418 15.525C25.2912 15.175 26.1614 15 27.0522 15C27.9443 15 28.815 15.175 29.6644 15.525C30.5139 15.875 31.2689 16.3854 31.9296 17.0562L32.4044 17.5375L32.8791 17.0562C33.5697 16.3854 34.3398 15.875 35.1892 15.525C36.0386 15.175 36.9088 15 37.7996 15C38.6917 15 39.5624 15.175 40.4118 15.525C41.2612 15.875 42.0163 16.3854 42.677 17.0562L49.9714 24.45C50.6332 25.1208 51.1368 25.8938 51.4821 26.7688C51.8274 27.6438 52 28.5333 52 29.4375C52 30.3417 51.8274 31.2242 51.4821 32.0852C51.1368 32.9462 50.6332 33.7116 49.9714 34.3812L35.8142 48.6875C35.4113 49.0958 34.9435 49.4167 34.4105 49.65C33.8776 49.8833 33.324 50 32.7497 50Z" fill="url(#paint1_linear_1049_1047)"/>
</g>
<defs>
<linearGradient id="paint0_linear_1049_1047" x1="52" y1="15" x2="38.2741" y2="57.787" gradientUnits="userSpaceOnUse">
<stop stop-color="#FF0000"/>
<stop offset="1" stop-color="#0066FF"/>
</linearGradient>
<linearGradient id="paint1_linear_1049_1047" x1="52" y1="15" x2="38.2741" y2="57.787" gradientUnits="userSpaceOnUse">
<stop stop-color="#FF0000"/>
<stop offset="1" stop-color="#0066FF"/>
</linearGradient>
</defs>
</svg>
