<svg width="78" height="78" viewBox="0 0 78 78" fill="none" xmlns="http://www.w3.org/2000/svg">
<circle cx="39" cy="39" r="39" fill="#1C2551"/>
<path d="M37.8716 39.0588V35.4559C37.8716 35.0464 38.0341 34.6536 38.3232 34.364C38.6123 34.0744 39.0044 33.9118 39.4133 33.9118C39.8222 33.9118 40.2143 34.0744 40.5034 34.364C40.7925 34.6536 40.955 35.0464 40.955 35.4559V39.0588H44.5522C44.9611 39.0588 45.3532 39.2215 45.6423 39.5111C45.9314 39.8007 46.0939 40.1934 46.0939 40.6029C46.0939 41.0125 45.9314 41.4052 45.6423 41.6948C45.3532 41.9844 44.9611 42.1471 44.5522 42.1471H40.955V45.75C40.955 46.1595 40.7925 46.5523 40.5034 46.8419C40.2143 47.1314 39.8222 47.2941 39.4133 47.2941C39.0044 47.2941 38.6123 47.1314 38.3232 46.8419C38.0341 46.5523 37.8716 46.1595 37.8716 45.75V42.1471H34.2744C33.8655 42.1471 33.4734 41.9844 33.1843 41.6948C32.8952 41.4052 32.7327 41.0125 32.7327 40.6029C32.7327 40.1934 32.8952 39.8007 33.1843 39.5111C33.4734 39.2215 33.8655 39.0588 34.2744 39.0588H37.8716ZM32.2189 19.5H45.58C45.9525 19.5 46.3125 19.6351 46.5932 19.8804C46.874 20.1257 47.0566 20.4644 47.1072 20.8341L47.1216 21.0441V27.7353H50.7189C52.4907 27.7353 54.1899 28.4403 55.4427 29.6951C56.6956 30.9499 57.3994 32.6519 57.3994 34.4265V47.8088C57.3994 49.5834 56.6956 51.2854 55.4427 52.5402C54.1899 53.795 52.4907 54.5 50.7189 54.5H27.08C25.3082 54.5 23.609 53.795 22.3561 52.5402C21.1033 51.2854 20.3994 49.5834 20.3994 47.8088V34.4265C20.3994 32.6519 21.1033 30.9499 22.3561 29.6951C23.609 28.4403 25.3082 27.7353 27.08 27.7353H30.6772V21.0441C30.6772 20.671 30.8121 20.3105 31.057 20.0293C31.3019 19.748 31.6401 19.5652 32.0092 19.5144L32.2189 19.5ZM50.7189 30.8235H27.08C26.1259 30.8235 25.211 31.2031 24.5363 31.8788C23.8617 32.5545 23.4827 33.4709 23.4827 34.4265V47.8088C23.4827 49.7976 25.0943 51.4118 27.08 51.4118H50.7189C51.6729 51.4118 52.5879 51.0322 53.2625 50.3565C53.9371 49.6808 54.3161 48.7644 54.3161 47.8088V34.4265C54.3161 33.4709 53.9371 32.5545 53.2625 31.8788C52.5879 31.2031 51.6729 30.8235 50.7189 30.8235ZM44.0383 22.5882H33.7605V27.7353H44.0383V22.5882Z" fill="#F1F1F1"/>
</svg>
