<svg width="78" height="78" viewBox="0 0 78 78" fill="none" xmlns="http://www.w3.org/2000/svg">
<circle cx="39" cy="39.0007" r="39" fill="#2A3571"/>
<path d="M37.8707 39.0596V35.4566C37.8707 35.0471 38.0331 34.6543 38.3222 34.3648C38.6113 34.0752 39.0035 33.9125 39.4123 33.9125C39.8212 33.9125 40.2133 34.0752 40.5024 34.3648C40.7916 34.6543 40.954 35.0471 40.954 35.4566V39.0596H44.5512C44.9601 39.0596 45.3522 39.2222 45.6413 39.5118C45.9305 39.8014 46.0929 40.1941 46.0929 40.6037C46.0929 41.0132 45.9305 41.406 45.6413 41.6955C45.3522 41.9851 44.9601 42.1478 44.5512 42.1478H40.954V45.7507C40.954 46.1603 40.7916 46.553 40.5024 46.8426C40.2133 47.1322 39.8212 47.2949 39.4123 47.2949C39.0035 47.2949 38.6113 47.1322 38.3222 46.8426C38.0331 46.553 37.8707 46.1603 37.8707 45.7507V42.1478H34.2734C33.8646 42.1478 33.4724 41.9851 33.1833 41.6955C32.8942 41.406 32.7318 41.0132 32.7318 40.6037C32.7318 40.1941 32.8942 39.8014 33.1833 39.5118C33.4724 39.2222 33.8646 39.0596 34.2734 39.0596H37.8707ZM32.2179 19.5007H45.579C45.9515 19.5007 46.3115 19.6359 46.5922 19.8811C46.873 20.1264 47.0556 20.4652 47.1063 20.8349L47.1207 21.0449V27.736H50.7179C52.4897 27.736 54.1889 28.441 55.4417 29.6958C56.6946 30.9507 57.3984 32.6526 57.3984 34.4272V47.8096C57.3984 49.5842 56.6946 51.2861 55.4417 52.5409C54.1889 53.7958 52.4897 54.5007 50.7179 54.5007H27.079C25.3072 54.5007 23.608 53.7958 22.3551 52.5409C21.1023 51.2861 20.3984 49.5842 20.3984 47.8096V34.4272C20.3984 32.6526 21.1023 30.9507 22.3551 29.6958C23.608 28.441 25.3072 27.736 27.079 27.736H30.6762V21.0449C30.6762 20.6717 30.8111 20.3112 31.056 20.03C31.3009 19.7488 31.6391 19.5659 32.0082 19.5151L32.2179 19.5007ZM50.7179 30.8243H27.079C26.125 30.8243 25.21 31.2039 24.5354 31.8795C23.8608 32.5552 23.4818 33.4716 23.4818 34.4272V47.8096C23.4818 49.7984 25.0933 51.4125 27.079 51.4125H50.7179C51.6719 51.4125 52.5869 51.0329 53.2615 50.3572C53.9361 49.6815 54.3151 48.7651 54.3151 47.8096V34.4272C54.3151 33.4716 53.9361 32.5552 53.2615 31.8795C52.5869 31.2039 51.6719 30.8243 50.7179 30.8243ZM44.0373 22.589H33.7595V27.736H44.0373V22.589Z" fill="#F1F1F1"/>
</svg>
