<svg width="42" height="42" viewBox="0 0 42 42" fill="none" xmlns="http://www.w3.org/2000/svg">
<path d="M37.5 8.49999H29.1667V4.33332C29.1667 2.04166 27.2917 0.166656 25 0.166656H16.6667C14.375 0.166656 12.5 2.04166 12.5 4.33332V8.49999H4.16667C1.875 8.49999 0 10.375 0 12.6667V37.6667C0 39.9583 1.875 41.8333 4.16667 41.8333H37.5C39.7917 41.8333 41.6667 39.9583 41.6667 37.6667V12.6667C41.6667 10.375 39.7917 8.49999 37.5 8.49999ZM16.6667 4.33332H25V8.49999H16.6667V4.33332ZM37.5 37.6667H4.16667V12.6667H37.5V37.6667Z" fill="#F1F1F1"/>
<path d="M22.9167 16.8333H18.75V23.0833H12.5V27.25H18.75V33.5H22.9167V27.25H29.1667V23.0833H22.9167V16.8333Z" fill="#F1F1F1"/>
</svg>
