<svg width="520" height="706" viewBox="0 0 520 706" fill="none" xmlns="http://www.w3.org/2000/svg">
<g opacity="0.2">
<path d="M250.766 705C220.312 705 197.308 697.253 181.757 681.758C166.206 666.264 158.43 645.282 158.43 618.812C158.43 602.672 161.346 586.209 167.178 569.423C173.657 552.637 183.701 532.301 197.308 508.413C210.916 483.88 228.411 453.214 249.794 416.415L415.028 134.609H96.2243C86.5047 134.609 78.729 137.191 72.8972 142.356C67.7134 146.875 62.5296 156.882 57.3458 172.376C52.162 187.225 44.3863 209.821 34.0187 240.165H0L64.1495 0H520V48.4203L380.037 288.585C358.006 326.03 342.131 358.956 332.411 387.363C323.34 415.124 318.804 440.302 318.804 462.898C318.804 480.33 320.424 496.47 323.664 511.319C326.903 525.522 330.467 539.08 334.355 551.992C338.243 564.258 341.807 576.525 345.047 588.791C348.287 600.412 349.907 612.033 349.907 623.654C349.907 651.415 340.187 672.074 320.748 685.632C301.308 698.544 277.981 705 250.766 705Z" fill="#3C4570"/>
</g>
</svg>
