<svg width="520" height="707" viewBox="0 0 520 707" fill="none" xmlns="http://www.w3.org/2000/svg">
<path d="M250.766 706.394C220.312 706.394 197.308 698.642 181.757 683.137C166.206 667.633 158.43 646.637 158.43 620.15C158.43 604 161.346 587.526 167.178 570.729C173.657 553.933 183.701 533.583 197.308 509.68C210.916 485.131 228.411 454.445 249.794 417.622L415.028 135.633H96.2243C86.5047 135.633 78.729 138.217 72.8972 143.386C67.7134 147.908 62.5296 157.921 57.3458 173.426C52.162 188.284 44.3863 210.895 34.0187 241.258H0L64.1495 0.937744H520V49.3894L380.037 289.71C358.006 327.179 342.131 360.126 332.411 388.551C323.34 416.33 318.804 441.525 318.804 464.136C318.804 481.578 320.424 497.729 323.664 512.587C326.903 526.8 330.467 540.366 334.355 553.287C338.243 565.561 341.807 577.836 345.047 590.11C348.287 601.738 349.907 613.367 349.907 624.995C349.907 652.774 340.187 673.447 320.748 687.013C301.308 699.934 277.981 706.394 250.766 706.394Z" fill="#F1F1F1"/>
<g clip-path="url(#clip0_98_691)">
<path d="M515.231 604.473C517.865 604.473 520 602.342 520 599.714C520 597.085 517.865 594.955 515.231 594.955C512.596 594.955 510.461 597.085 510.461 599.714C510.461 602.342 512.596 604.473 515.231 604.473Z" fill="#2D2D2D"/>
<path d="M471.979 604.473C474.613 604.473 476.748 602.342 476.748 599.714C476.748 597.085 474.613 594.955 471.979 594.955C469.344 594.955 467.209 597.085 467.209 599.714C467.209 602.342 469.344 604.473 471.979 604.473Z" fill="#2D2D2D"/>
<path d="M428.744 604.473C431.382 604.473 433.514 602.345 433.514 599.714C433.514 597.082 431.382 594.955 428.744 594.955C426.107 594.955 423.975 597.082 423.975 599.714C423.975 602.345 426.107 604.473 428.744 604.473Z" fill="#2D2D2D"/>
<path d="M385.51 604.473C388.148 604.473 390.28 602.345 390.28 599.714C390.28 597.082 388.148 594.955 385.51 594.955C382.872 594.955 380.74 597.082 380.74 599.714C380.74 602.345 382.872 604.473 385.51 604.473Z" fill="#2D2D2D"/>
<path d="M342.256 604.473C344.89 604.473 347.026 602.342 347.026 599.714C347.026 597.085 344.89 594.955 342.256 594.955C339.622 594.955 337.486 597.085 337.486 599.714C337.486 602.342 339.622 604.473 342.256 604.473Z" fill="#2D2D2D"/>
<path d="M300.853 604.1C303.29 603.1 304.453 600.32 303.451 597.889C302.449 595.458 299.662 594.298 297.226 595.297C294.789 596.297 293.626 599.077 294.628 601.508C295.63 603.939 298.417 605.099 300.853 604.1Z" fill="#2D2D2D"/>
<path d="M255.77 594.937C253.132 594.937 251 597.064 251 599.696C251 602.328 253.132 604.455 255.77 604.455C258.407 604.455 260.539 602.328 260.539 599.696C260.539 597.064 258.407 594.937 255.77 594.937Z" fill="#2D2D2D"/>
<path d="M515.231 565.879C517.865 565.879 520 563.748 520 561.12C520 558.492 517.865 556.361 515.231 556.361C512.596 556.361 510.461 558.492 510.461 561.12C510.461 563.748 512.596 565.879 515.231 565.879Z" fill="#2D2D2D"/>
<path d="M471.979 565.879C474.613 565.879 476.748 563.748 476.748 561.12C476.748 558.492 474.613 556.361 471.979 556.361C469.344 556.361 467.209 558.492 467.209 561.12C467.209 563.748 469.344 565.879 471.979 565.879Z" fill="#2D2D2D"/>
<path d="M428.744 565.879C431.382 565.879 433.514 563.752 433.514 561.12C433.514 558.488 431.382 556.361 428.744 556.361C426.107 556.361 423.975 558.488 423.975 561.12C423.975 563.752 426.107 565.879 428.744 565.879Z" fill="#2D2D2D"/>
<path d="M385.51 565.879C388.148 565.879 390.28 563.752 390.28 561.12C390.28 558.488 388.148 556.361 385.51 556.361C382.872 556.361 380.74 558.488 380.74 561.12C380.74 563.752 382.872 565.879 385.51 565.879Z" fill="#2D2D2D"/>
<path d="M342.256 565.879C344.89 565.879 347.026 563.748 347.026 561.12C347.026 558.492 344.89 556.361 342.256 556.361C339.622 556.361 337.486 558.492 337.486 561.12C337.486 563.748 339.622 565.879 342.256 565.879Z" fill="#2D2D2D"/>
<path d="M300.832 565.522C303.268 564.522 304.431 561.741 303.429 559.311C302.428 556.88 299.641 555.719 297.204 556.719C294.768 557.718 293.605 560.499 294.607 562.93C295.608 565.361 298.395 566.521 300.832 565.522Z" fill="#2D2D2D"/>
<path d="M255.77 565.879C258.407 565.879 260.539 563.752 260.539 561.12C260.539 558.488 258.407 556.361 255.77 556.361C253.132 556.361 251 558.488 251 561.12C251 563.752 253.132 565.879 255.77 565.879Z" fill="#2D2D2D"/>
<path d="M515.231 527.286C517.865 527.286 520 525.155 520 522.527C520 519.898 517.865 517.768 515.231 517.768C512.596 517.768 510.461 519.898 510.461 522.527C510.461 525.155 512.596 527.286 515.231 527.286Z" fill="#2D2D2D"/>
<path d="M471.979 527.286C474.613 527.286 476.748 525.155 476.748 522.527C476.748 519.898 474.613 517.768 471.979 517.768C469.344 517.768 467.209 519.898 467.209 522.527C467.209 525.155 469.344 527.286 471.979 527.286Z" fill="#2D2D2D"/>
<path d="M428.744 527.304C431.382 527.304 433.514 525.177 433.514 522.545C433.514 519.913 431.382 517.786 428.744 517.786C426.107 517.786 423.975 519.913 423.975 522.545C423.975 525.177 426.107 527.304 428.744 527.304Z" fill="#2D2D2D"/>
<path d="M385.51 527.304C388.148 527.304 390.28 525.177 390.28 522.545C390.28 519.913 388.148 517.786 385.51 517.786C382.872 517.786 380.74 519.913 380.74 522.545C380.74 525.177 382.872 527.304 385.51 527.304Z" fill="#2D2D2D"/>
<path d="M342.256 527.286C344.89 527.286 347.026 525.155 347.026 522.527C347.026 519.898 344.89 517.768 342.256 517.768C339.622 517.768 337.486 519.898 337.486 522.527C337.486 525.155 339.622 527.286 342.256 527.286Z" fill="#2D2D2D"/>
<path d="M300.83 526.925C303.266 525.926 304.429 523.145 303.428 520.714C302.426 518.283 299.639 517.123 297.202 518.122C294.766 519.122 293.603 521.902 294.605 524.333C295.606 526.764 298.394 527.924 300.83 526.925Z" fill="#2D2D2D"/>
<path d="M255.77 527.304C258.407 527.304 260.539 525.177 260.539 522.545C260.539 519.913 258.407 517.786 255.77 517.786C253.132 517.786 251 519.913 251 522.545C251 525.177 253.132 527.304 255.77 527.304Z" fill="#2D2D2D"/>
<path d="M515.231 488.71C517.865 488.71 520 486.579 520 483.951C520 481.323 517.865 479.192 515.231 479.192C512.596 479.192 510.461 481.323 510.461 483.951C510.461 486.579 512.596 488.71 515.231 488.71Z" fill="#2D2D2D"/>
<path d="M471.979 488.71C474.613 488.71 476.748 486.579 476.748 483.951C476.748 481.323 474.613 479.192 471.979 479.192C469.344 479.192 467.209 481.323 467.209 483.951C467.209 486.579 469.344 488.71 471.979 488.71Z" fill="#2D2D2D"/>
<path d="M428.744 488.71C431.382 488.71 433.514 486.583 433.514 483.951C433.514 481.319 431.382 479.192 428.744 479.192C426.107 479.192 423.975 481.319 423.975 483.951C423.975 486.583 426.107 488.71 428.744 488.71Z" fill="#2D2D2D"/>
<path d="M385.51 488.71C388.148 488.71 390.28 486.583 390.28 483.951C390.28 481.319 388.148 479.192 385.51 479.192C382.872 479.192 380.74 481.319 380.74 483.951C380.74 486.583 382.872 488.71 385.51 488.71Z" fill="#2D2D2D"/>
<path d="M342.256 488.71C344.89 488.71 347.026 486.579 347.026 483.951C347.026 481.323 344.89 479.192 342.256 479.192C339.622 479.192 337.486 481.323 337.486 483.951C337.486 486.579 339.622 488.71 342.256 488.71Z" fill="#2D2D2D"/>
<path d="M300.834 488.345C303.27 487.346 304.433 484.565 303.431 482.134C302.43 479.703 299.643 478.543 297.206 479.543C294.77 480.542 293.607 483.323 294.609 485.754C295.61 488.184 298.397 489.345 300.834 488.345Z" fill="#2D2D2D"/>
<path d="M255.77 488.71C258.407 488.71 260.539 486.583 260.539 483.951C260.539 481.319 258.407 479.192 255.77 479.192C253.132 479.192 251 481.319 251 483.951C251 486.583 253.132 488.71 255.77 488.71Z" fill="#2D2D2D"/>
<path d="M515.231 450.117C517.865 450.117 520 447.986 520 445.358C520 442.729 517.865 440.599 515.231 440.599C512.596 440.599 510.461 442.729 510.461 445.358C510.461 447.986 512.596 450.117 515.231 450.117Z" fill="#2D2D2D"/>
<path d="M471.979 450.117C474.613 450.117 476.748 447.986 476.748 445.358C476.748 442.729 474.613 440.599 471.979 440.599C469.344 440.599 467.209 442.729 467.209 445.358C467.209 447.986 469.344 450.117 471.979 450.117Z" fill="#2D2D2D"/>
<path d="M428.744 450.135C431.382 450.135 433.514 448.008 433.514 445.376C433.514 442.744 431.382 440.617 428.744 440.617C426.107 440.617 423.975 442.744 423.975 445.376C423.975 448.008 426.107 450.135 428.744 450.135Z" fill="#2D2D2D"/>
<path d="M385.51 450.135C388.148 450.135 390.28 448.008 390.28 445.376C390.28 442.744 388.148 440.617 385.51 440.617C382.872 440.617 380.74 442.744 380.74 445.376C380.74 448.008 382.872 450.135 385.51 450.135Z" fill="#2D2D2D"/>
<path d="M342.256 450.117C344.89 450.117 347.026 447.986 347.026 445.358C347.026 442.729 344.89 440.599 342.256 440.599C339.622 440.599 337.486 442.729 337.486 445.358C337.486 447.986 339.622 450.117 342.256 450.117Z" fill="#2D2D2D"/>
<path d="M300.83 449.749C303.266 448.749 304.429 445.969 303.428 443.538C302.426 441.107 299.639 439.947 297.202 440.946C294.766 441.945 293.603 444.726 294.605 447.157C295.606 449.588 298.394 450.748 300.83 449.749Z" fill="#2D2D2D"/>
<path d="M255.77 450.135C258.407 450.135 260.539 448.008 260.539 445.376C260.539 442.744 258.407 440.599 255.77 440.599C253.132 440.599 251 442.726 251 445.358C251 447.99 253.132 450.117 255.77 450.117V450.135Z" fill="#2D2D2D"/>
</g>
<defs>
<clipPath id="clip0_98_691">
<rect width="269" height="163.874" fill="white" transform="translate(251 440.599)"/>
</clipPath>
</defs>
</svg>
