<svg width="65" height="65" viewBox="0 0 65 65" fill="none" xmlns="http://www.w3.org/2000/svg">
<circle cx="32.5" cy="32.5" r="32.5" fill="#E00E62"/>
<path d="M22.4216 36.5313C21.2257 36.5313 20.0566 36.8859 19.0622 37.5503C18.0678 38.2148 17.2927 39.1592 16.8351 40.2641C16.3774 41.369 16.2576 42.5848 16.491 43.7578C16.7243 44.9308 17.3002 46.0082 18.1459 46.8539C18.9915 47.6996 20.069 48.2755 21.242 48.5088C22.4149 48.7421 23.6308 48.6224 24.7357 48.1647C25.8406 47.707 26.785 46.932 27.4494 45.9376C28.1139 44.9432 28.4685 43.7741 28.4685 42.5781C28.4685 40.9744 27.8314 39.4364 26.6974 38.3023C25.5634 37.1683 24.0254 36.5313 22.4216 36.5313ZM22.4216 45.9375C21.7572 45.9375 21.1077 45.7405 20.5553 45.3713C20.0028 45.0022 19.5723 44.4776 19.318 43.8637C19.0637 43.2499 18.9972 42.5744 19.1268 41.9227C19.2564 41.2711 19.5764 40.6725 20.0462 40.2027C20.516 39.7329 21.1146 39.4129 21.7663 39.2833C22.4179 39.1537 23.0934 39.2202 23.7072 39.4745C24.3211 39.7287 24.8457 40.1593 25.2149 40.7118C25.584 41.2642 25.781 41.9137 25.781 42.5781C25.781 43.4691 25.4271 44.3236 24.7971 44.9536C24.1671 45.5836 23.3126 45.9375 22.4216 45.9375ZM16.7678 28.8618L19.1782 26.4531L16.7678 24.0445C16.5157 23.7923 16.374 23.4503 16.374 23.0938C16.374 22.7372 16.5157 22.3952 16.7678 22.143C17.02 21.8909 17.3619 21.7493 17.7185 21.7493C18.0751 21.7493 18.4171 21.8909 18.6692 22.143L21.0779 24.5534L23.4866 22.143C23.7387 21.8909 24.0807 21.7493 24.4373 21.7493C24.7939 21.7493 25.1358 21.8909 25.388 22.143C25.6401 22.3952 25.7818 22.7372 25.7818 23.0938C25.7818 23.4503 25.6401 23.7923 25.388 24.0445L22.9776 26.4531L25.388 28.8618C25.6401 29.1139 25.7818 29.4559 25.7818 29.8125C25.7818 30.1691 25.6401 30.5111 25.388 30.7632C25.1358 31.0153 24.7939 31.157 24.4373 31.157C24.0807 31.157 23.7387 31.0153 23.4866 30.7632L21.0779 28.3529L18.6692 30.7632C18.4171 31.0153 18.0751 31.157 17.7185 31.157C17.3619 31.157 17.02 31.0153 16.7678 30.7632C16.5157 30.5111 16.374 30.1691 16.374 29.8125C16.374 29.4559 16.5157 29.1139 16.7678 28.8618ZM48.2317 44.9868C48.3566 45.1116 48.4556 45.2599 48.5232 45.423C48.5908 45.5861 48.6255 45.7609 48.6255 45.9375C48.6255 46.1141 48.5908 46.2889 48.5232 46.452C48.4556 46.6151 48.3566 46.7634 48.2317 46.8882C48.1069 47.0131 47.9587 47.1121 47.7956 47.1797C47.6324 47.2472 47.4576 47.282 47.281 47.282C47.1045 47.282 46.9296 47.2472 46.7665 47.1797C46.6034 47.1121 46.4552 47.0131 46.3303 46.8882L43.9217 44.4779L41.513 46.8882C41.2608 47.1404 40.9189 47.282 40.5623 47.282C40.2057 47.282 39.8637 47.1404 39.6116 46.8882C39.3594 46.6361 39.2178 46.2941 39.2178 45.9375C39.2178 45.5809 39.3594 45.2389 39.6116 44.9868L42.0219 42.5781L39.6116 40.1695C39.3594 39.9173 39.2178 39.5753 39.2178 39.2188C39.2178 38.8622 39.3594 38.5202 39.6116 38.2681C39.8637 38.0159 40.2057 37.8743 40.5623 37.8743C40.9189 37.8743 41.2608 38.0159 41.513 38.2681L43.9217 40.6784L46.3303 38.2681C46.5825 38.0159 46.9245 37.8743 47.281 37.8743C47.6376 37.8743 47.9796 38.0159 48.2317 38.2681C48.4839 38.5202 48.6255 38.8622 48.6255 39.2188C48.6255 39.5753 48.4839 39.9173 48.2317 40.1695L45.8214 42.5781L48.2317 44.9868ZM40.6412 29.9519C39.6032 33.7027 36.3883 36.9445 32.8256 37.8347C32.7158 37.862 32.6029 37.8755 32.4897 37.875C32.162 37.8744 31.8459 37.7541 31.6007 37.5367C31.3555 37.3193 31.1982 37.0198 31.1584 36.6946C31.1186 36.3694 31.1989 36.0408 31.3844 35.7706C31.5699 35.5005 31.8477 35.3075 32.1655 35.2278C34.7909 34.5711 37.2634 32.0515 38.0444 29.2347C38.5802 27.303 38.5853 24.3636 35.5736 21.357L35.1873 20.9622V24.4375C35.1873 24.7939 35.0457 25.1357 34.7937 25.3877C34.5417 25.6397 34.1999 25.7813 33.8435 25.7813C33.4871 25.7813 33.1454 25.6397 32.8934 25.3877C32.6414 25.1357 32.4998 24.7939 32.4998 24.4375V17.7188C32.4998 17.3624 32.6414 17.0206 32.8934 16.7686C33.1454 16.5166 33.4871 16.375 33.8435 16.375H40.5623C40.9187 16.375 41.2605 16.5166 41.5125 16.7686C41.7645 17.0206 41.906 17.3624 41.906 17.7188C41.906 18.0751 41.7645 18.4169 41.5125 18.6689C41.2605 18.9209 40.9187 19.0625 40.5623 19.0625H37.087L37.4817 19.4555C40.5455 22.521 41.6675 26.2482 40.6412 29.9519Z" fill="#FFF5EE"/>
</svg>
