<svg width="24" height="24" viewBox="0 0 24 24" fill="none" xmlns="http://www.w3.org/2000/svg">
<path fill-rule="evenodd" clip-rule="evenodd" d="M8.00653 3.76165C9.2454 3.16617 10.6026 2.85776 11.9772 2.85938C17.0283 2.85962 21.1267 6.94652 21.1267 11.9902V13.387C21.1267 13.8013 20.7909 14.137 20.3767 14.137C19.9625 14.137 19.6267 13.8013 19.6267 13.387V11.9902C19.6267 7.77802 16.2029 4.35938 11.9767 4.35938L11.9758 4.35938C10.8267 4.35797 9.69204 4.61576 8.65635 5.11358C7.62066 5.6114 6.7106 6.33641 5.99391 7.23465C5.73557 7.55843 5.26367 7.61148 4.93989 7.35314C4.61611 7.0948 4.56306 6.6229 4.8214 6.29912C5.67879 5.22454 6.76752 4.35719 8.00653 3.76165ZM3.60156 9.86063C4.01578 9.86063 4.35156 10.1964 4.35156 10.6106V12.0075C4.35156 16.2248 7.77355 19.6406 12.0014 19.6406C13.1478 19.6388 14.2794 19.3814 15.3138 18.8869C16.3484 18.3924 17.2596 17.6732 17.9811 16.7819C18.2417 16.4599 18.714 16.4102 19.0359 16.6708C19.3579 16.9314 19.4076 17.4037 19.147 17.7256C18.2852 18.7904 17.1966 19.6495 15.9607 20.2403C14.7247 20.8311 13.3725 21.1386 12.0026 21.1406L12.0016 21.1406C6.94825 21.1406 2.85156 17.0564 2.85156 12.0075V10.6106C2.85156 10.1964 3.18735 9.86063 3.60156 9.86063Z" fill="#F1F1F1"/>
<path fill-rule="evenodd" clip-rule="evenodd" d="M3.03217 9.40717C3.32047 9.11887 3.78628 9.11369 4.08092 9.39552L6.23717 11.458C6.5365 11.7443 6.54705 12.2191 6.26073 12.5184C5.97442 12.8177 5.49966 12.8283 5.20033 12.542L3.57415 10.9865L2.03033 12.5303C1.73744 12.8232 1.26256 12.8232 0.96967 12.5303C0.676777 12.2374 0.676777 11.7626 0.96967 11.4697L3.03217 9.40717ZM17.7393 11.4816C18.0256 11.1823 18.5003 11.1717 18.7997 11.458L20.4258 13.0135L21.9697 11.4697C22.2626 11.1768 22.7374 11.1768 23.0303 11.4697C23.3232 11.7626 23.3232 12.2374 23.0303 12.5303L20.9678 14.5928C20.6795 14.8811 20.2137 14.8863 19.9191 14.6045L17.7628 12.542C17.4635 12.2557 17.453 11.7809 17.7393 11.4816Z" fill="#F1F1F1"/>
</svg>
