<svg width="27" height="26" viewBox="0 0 27 26" fill="none" xmlns="http://www.w3.org/2000/svg">
<rect width="26.25" height="26" fill="#0E5EF1"/>
<path d="M8.75 20.5833H5.46875V9.75H8.75V20.5833ZM20.7812 20.5833H17.5V14.7962C17.5 13.2882 16.9575 12.5374 15.8823 12.5374C15.0303 12.5374 14.49 12.9578 14.2188 13.7995V20.5833H10.9375C10.9375 20.5833 10.9812 10.8333 10.9375 9.75H13.5275L13.7277 11.9167H13.7955C14.4681 10.8333 15.5433 10.0988 17.0177 10.0988C18.1387 10.0988 19.0455 10.4076 19.7378 11.1833C20.4345 11.96 20.7812 13.0022 20.7812 14.4657V20.5833Z" fill="#FFFBF1"/>
<path d="M7.10938 8.66663C8.04567 8.66663 8.80469 7.93909 8.80469 7.04163C8.80469 6.14416 8.04567 5.41663 7.10938 5.41663C6.17308 5.41663 5.41406 6.14416 5.41406 7.04163C5.41406 7.93909 6.17308 8.66663 7.10938 8.66663Z" fill="#FFFBF1"/>
</svg>
