<svg width="65" height="65" viewBox="0 0 65 65" fill="none" xmlns="http://www.w3.org/2000/svg">
<circle cx="32.5" cy="32.501" r="32.5" fill="#2D2D2D"/>
<g style="mix-blend-mode:screen">
<path d="M35.5455 18.001C37.3296 18.001 39.0407 18.7121 40.3024 19.978C41.564 21.2439 42.2727 22.9608 42.2727 24.751C42.2727 26.5412 41.564 28.2581 40.3024 29.5239C39.0407 30.7898 37.3296 31.501 35.5455 31.501C33.7613 31.501 32.0502 30.7898 30.7886 29.5239C29.5269 28.2581 28.8182 26.5412 28.8182 24.751C28.8182 22.9608 29.5269 21.2439 30.7886 19.978C32.0502 18.7121 33.7613 18.001 35.5455 18.001ZM35.5455 21.2072C34.6088 21.2072 33.7104 21.5806 33.0481 22.2452C32.3857 22.9097 32.0136 23.8111 32.0136 24.751C32.0136 25.6908 32.3857 26.5922 33.0481 27.2568C33.7104 27.9214 34.6088 28.2947 35.5455 28.2947C36.4821 28.2947 37.3805 27.9214 38.0428 27.2568C38.7052 26.5922 39.0773 25.6908 39.0773 24.751C39.0773 23.8111 38.7052 22.9097 38.0428 22.2452C37.3805 21.5806 36.4821 21.2072 35.5455 21.2072ZM35.5455 33.1885C40.0359 33.1885 49 35.4329 49 39.9385V45.001H22.0909V39.9385C22.0909 35.4329 31.055 33.1885 35.5455 33.1885ZM35.5455 36.3947C30.5 36.3947 25.2864 38.8585 25.2864 39.9385V41.7947H45.8045V39.9385C45.8045 38.8585 40.5405 36.3947 35.5455 36.3947ZM18.7273 33.661L14.5227 36.1754L15.6664 31.4335L12 28.261L16.8268 27.8391L18.7273 23.3841L20.5941 27.8391L25.4545 28.261L21.7545 31.4335L22.8477 36.1754L18.7273 33.661Z" fill="url(#paint0_linear_283_12041)"/>
</g>
<g style="mix-blend-mode:screen">
<path d="M35.5455 18.001C37.3296 18.001 39.0407 18.7121 40.3024 19.978C41.564 21.2439 42.2727 22.9608 42.2727 24.751C42.2727 26.5412 41.564 28.2581 40.3024 29.5239C39.0407 30.7898 37.3296 31.501 35.5455 31.501C33.7613 31.501 32.0502 30.7898 30.7886 29.5239C29.5269 28.2581 28.8182 26.5412 28.8182 24.751C28.8182 22.9608 29.5269 21.2439 30.7886 19.978C32.0502 18.7121 33.7613 18.001 35.5455 18.001ZM35.5455 21.2072C34.6088 21.2072 33.7104 21.5806 33.0481 22.2452C32.3857 22.9097 32.0136 23.8111 32.0136 24.751C32.0136 25.6908 32.3857 26.5922 33.0481 27.2568C33.7104 27.9214 34.6088 28.2947 35.5455 28.2947C36.4821 28.2947 37.3805 27.9214 38.0428 27.2568C38.7052 26.5922 39.0773 25.6908 39.0773 24.751C39.0773 23.8111 38.7052 22.9097 38.0428 22.2452C37.3805 21.5806 36.4821 21.2072 35.5455 21.2072ZM35.5455 33.1885C40.0359 33.1885 49 35.4329 49 39.9385V45.001H22.0909V39.9385C22.0909 35.4329 31.055 33.1885 35.5455 33.1885ZM35.5455 36.3947C30.5 36.3947 25.2864 38.8585 25.2864 39.9385V41.7947H45.8045V39.9385C45.8045 38.8585 40.5405 36.3947 35.5455 36.3947ZM18.7273 33.661L14.5227 36.1754L15.6664 31.4335L12 28.261L16.8268 27.8391L18.7273 23.3841L20.5941 27.8391L25.4545 28.261L21.7545 31.4335L22.8477 36.1754L18.7273 33.661Z" fill="url(#paint1_linear_283_12041)"/>
</g>
<defs>
<linearGradient id="paint0_linear_283_12041" x1="49" y1="18.001" x2="40.309" y2="52.196" gradientUnits="userSpaceOnUse">
<stop stop-color="#FF0000"/>
<stop offset="1" stop-color="#0066FF"/>
</linearGradient>
<linearGradient id="paint1_linear_283_12041" x1="49" y1="18.001" x2="40.309" y2="52.196" gradientUnits="userSpaceOnUse">
<stop stop-color="#FF0000"/>
<stop offset="1" stop-color="#0066FF"/>
</linearGradient>
</defs>
</svg>
