<svg width="42" height="42" viewBox="0 0 42 42" fill="none" xmlns="http://www.w3.org/2000/svg">
<path d="M27.0041 19.084V19.1048M6.5312 13.6215C5.61745 12.9192 4.91567 11.978 4.50341 10.9018C4.09116 9.82557 3.98449 8.65634 4.19519 7.52332C4.4059 6.39029 4.92577 5.33759 5.69735 4.48155C6.46894 3.62551 7.46219 2.99947 8.56732 2.67263C9.67245 2.34579 10.8464 2.33087 11.9595 2.62953C13.0726 2.92818 14.0814 3.52878 14.8745 4.36494C15.6676 5.2011 16.2141 6.24025 16.4535 7.36756C16.6929 8.49487 16.616 9.66642 16.2312 10.7527" stroke="#F1F1F1" stroke-width="4" stroke-linecap="round" stroke-linejoin="round"/>
<path d="M29.0874 4.50067V12.4236C31.6658 13.9155 33.6288 16.2766 34.6249 19.084H37.4187C37.9712 19.084 38.5011 19.3035 38.8918 19.6942C39.2825 20.0849 39.502 20.6148 39.502 21.1673V25.334C39.502 25.8865 39.2825 26.4164 38.8918 26.8071C38.5011 27.1978 37.9712 27.4173 37.4187 27.4173H34.6228C33.9228 29.3965 32.7333 31.1673 31.1687 32.5694V36.7923C31.1687 37.6211 30.8394 38.416 30.2534 39.002C29.6673 39.5881 28.8725 39.9173 28.0437 39.9173C27.2149 39.9173 26.42 39.5881 25.834 39.002C25.2479 38.416 24.9187 37.6211 24.9187 36.7923V35.5778C24.2302 35.6931 23.5334 35.7509 22.8353 35.7507H14.502C13.804 35.7509 13.1071 35.6931 12.4187 35.5778V36.7923C12.4187 37.6211 12.0894 38.416 11.5034 39.002C10.9173 39.5881 10.1225 39.9173 9.29368 39.9173C8.46488 39.9173 7.67002 39.5881 7.08397 39.002C6.49792 38.416 6.16868 37.6211 6.16868 36.7923V32.5694C4.2811 30.8819 2.95051 28.6608 2.35302 26.2004C1.75553 23.7399 1.91933 21.156 2.82273 18.7907C3.72612 16.4254 5.32652 14.3902 7.41209 12.9545C9.49766 11.5188 11.97 10.7503 14.502 10.7507H19.7103L29.0853 4.50067H29.0874Z" stroke="#F1F1F1" stroke-width="4" stroke-linecap="round" stroke-linejoin="round"/>
</svg>
