<svg width="78" height="78" viewBox="0 0 78 78" fill="none" xmlns="http://www.w3.org/2000/svg">
<circle cx="39" cy="39" r="39" fill="#1C2551"/>
<path d="M51.0049 36.3533C51.0049 36.7736 50.8801 37.1844 50.6461 37.5339C50.4122 37.8833 50.0797 38.1557 49.6906 38.3165C49.3016 38.4774 48.8735 38.5195 48.4605 38.4375C48.0475 38.3555 47.6682 38.1531 47.3704 37.8559C47.0727 37.5587 46.8699 37.1801 46.7878 36.7679C46.7056 36.3557 46.7478 35.9284 46.9089 35.5401C47.0701 35.1518 47.343 34.8199 47.6931 34.5864C48.0432 34.3529 48.4548 34.2283 48.8759 34.2283C49.4405 34.2283 49.9821 34.4522 50.3813 34.8507C50.7806 35.2492 51.0049 35.7897 51.0049 36.3533ZM43.9082 27.145H36.8114C36.4349 27.145 36.0739 27.2942 35.8078 27.5599C35.5416 27.8256 35.392 28.1859 35.392 28.5616C35.392 28.9374 35.5416 29.2977 35.8078 29.5634C36.0739 29.829 36.4349 29.9783 36.8114 29.9783H43.9082C44.2846 29.9783 44.6456 29.829 44.9118 29.5634C45.178 29.2977 45.3275 28.9374 45.3275 28.5616C45.3275 28.1859 45.178 27.8256 44.9118 27.5599C44.6456 27.2942 44.2846 27.145 43.9082 27.145ZM60.9404 35.645V41.3116C60.9404 42.4388 60.4918 43.5198 59.6932 44.3168C58.8947 45.1139 57.8116 45.5616 56.6823 45.5616H56.2636L53.3877 53.5977C53.1908 54.1481 52.8281 54.6243 52.3495 54.961C51.8708 55.2977 51.2995 55.4784 50.714 55.4783H48.4572C47.8716 55.4784 47.3003 55.2977 46.8217 54.961C46.343 54.6243 45.9804 54.1481 45.7835 53.5977L45.4428 52.645H35.2767L34.9361 53.5977C34.7392 54.1481 34.3765 54.6243 33.8979 54.961C33.4192 55.2977 32.8479 55.4784 32.2624 55.4783H30.0056C29.42 55.4784 28.8487 55.2977 28.3701 54.961C27.8914 54.6243 27.5288 54.1481 27.3319 53.5977L25.1017 47.3714C22.9801 44.9748 21.6516 41.9827 21.2978 38.8041C20.8398 39.0443 20.4562 39.4048 20.1885 39.8467C19.9209 40.2887 19.7793 40.7952 19.7791 41.3116C19.7791 41.6874 19.6296 42.0477 19.3634 42.3134C19.0972 42.579 18.7362 42.7283 18.3598 42.7283C17.9833 42.7283 17.6223 42.579 17.3561 42.3134C17.09 42.0477 16.9404 41.6874 16.9404 41.3116C16.9426 40.0483 17.3677 38.8218 18.1482 37.8272C18.9287 36.8326 20.0198 36.1268 21.2482 35.8221C21.5652 31.9179 23.3418 28.2756 26.2249 25.6184C29.1081 22.9611 32.887 21.4833 36.8114 21.4783H55.263C55.6394 21.4783 56.0004 21.6276 56.2666 21.8932C56.5328 22.1589 56.6823 22.5192 56.6823 22.895C56.6823 23.2707 56.5328 23.631 56.2666 23.8967C56.0004 24.1624 55.6394 24.3116 55.263 24.3116H51.468C53.8235 25.9612 55.676 28.2288 56.8207 30.8637C56.897 31.0408 56.9715 31.2179 57.0425 31.395C58.1083 31.4853 59.101 31.9726 59.8232 32.76C60.5454 33.5475 60.9442 34.5774 60.9404 35.645ZM58.1017 35.645C58.1017 35.2692 57.9522 34.9089 57.686 34.6432C57.4198 34.3776 57.0588 34.2283 56.6823 34.2283H56.033C55.7307 34.2286 55.4362 34.1326 55.1924 33.9542C54.9486 33.7759 54.7682 33.5245 54.6775 33.2366C53.8643 30.6465 52.2431 28.3835 50.0504 26.778C47.8577 25.1724 45.2083 24.3082 42.4888 24.3116H36.8114C34.3323 24.3115 31.9068 25.0314 29.8306 26.3834C27.7544 27.7355 26.1172 29.6613 25.1186 31.926C24.1201 34.1908 23.8033 36.6966 24.2071 39.1379C24.6108 41.5793 25.7175 43.8506 27.3922 45.675C27.5203 45.814 27.6192 45.9771 27.6832 46.1549L30.0056 52.645H32.2624L32.9401 50.7519C33.0385 50.4769 33.2197 50.2389 33.4588 50.0705C33.698 49.9022 33.9834 49.8118 34.2761 49.8116H46.4435C46.7361 49.8118 47.0216 49.9022 47.2607 50.0705C47.4999 50.2389 47.681 50.4769 47.7794 50.7519L48.4572 52.645H50.714L53.927 43.6686C54.0254 43.3935 54.2066 43.1555 54.4458 42.9872C54.6849 42.8189 54.9703 42.7285 55.263 42.7283H56.6823C57.0588 42.7283 57.4198 42.579 57.686 42.3134C57.9522 42.0477 58.1017 41.6874 58.1017 41.3116V35.645Z" fill="#F1F1F1"/>
</svg>
