<svg width="78" height="78" viewBox="0 0 78 78" fill="none" xmlns="http://www.w3.org/2000/svg">
<circle cx="39" cy="39.0007" r="39" fill="#2A3571"/>
<path d="M51.0059 36.354C51.0059 36.7743 50.881 37.1852 50.6471 37.5346C50.4132 37.8841 50.0806 38.1565 49.6916 38.3173C49.3026 38.4781 48.8745 38.5202 48.4615 38.4382C48.0485 38.3562 47.6692 38.1538 47.3714 37.8567C47.0737 37.5595 46.8709 37.1808 46.7887 36.7686C46.7066 36.3564 46.7488 35.9291 46.9099 35.5408C47.071 35.1526 47.3439 34.8207 47.694 34.5872C48.0442 34.3537 48.4558 34.229 48.8769 34.229C49.4415 34.229 49.9831 34.4529 50.3823 34.8514C50.7816 35.25 51.0059 35.7905 51.0059 36.354ZM43.9091 27.1457H36.8124C36.4359 27.1457 36.0749 27.295 35.8087 27.5606C35.5425 27.8263 35.393 28.1867 35.393 28.5624C35.393 28.9381 35.5425 29.2984 35.8087 29.5641C36.0749 29.8298 36.4359 29.979 36.8124 29.979H43.9091C44.2856 29.979 44.6466 29.8298 44.9128 29.5641C45.1789 29.2984 45.3285 28.9381 45.3285 28.5624C45.3285 28.1867 45.1789 27.8263 44.9128 27.5606C44.6466 27.295 44.2856 27.1457 43.9091 27.1457ZM60.9414 35.6457V41.3124C60.9414 42.4396 60.4928 43.5206 59.6942 44.3176C58.8957 45.1146 57.8126 45.5624 56.6833 45.5624H56.2646L53.3886 53.5984C53.1917 54.1489 52.8291 54.6251 52.3504 54.9617C51.8718 55.2984 51.3005 55.4791 50.7149 55.479H48.4582C47.8726 55.4791 47.3013 55.2984 46.8227 54.9617C46.344 54.6251 45.9814 54.1489 45.7845 53.5984L45.4438 52.6457H35.2777L34.937 53.5984C34.7401 54.1489 34.3775 54.6251 33.8988 54.9617C33.4202 55.2984 32.8489 55.4791 32.2633 55.479H30.0066C29.421 55.4791 28.8497 55.2984 28.371 54.9617C27.8924 54.6251 27.5298 54.1489 27.3329 53.5984L25.1027 47.3722C22.9811 44.9755 21.6526 41.9835 21.2988 38.8049C20.8408 39.045 20.4572 39.4055 20.1895 39.8475C19.9218 40.2894 19.7803 40.796 19.7801 41.3124C19.7801 41.6881 19.6306 42.0484 19.3644 42.3141C19.0982 42.5798 18.7372 42.729 18.3608 42.729C17.9843 42.729 17.6233 42.5798 17.3571 42.3141C17.0909 42.0484 16.9414 41.6881 16.9414 41.3124C16.9436 40.049 17.3687 38.8226 18.1492 37.828C18.9296 36.8334 20.0208 36.1276 21.2491 35.8228C21.5662 31.9187 23.3427 28.2764 26.2259 25.6191C29.1091 22.9619 32.888 21.484 36.8124 21.479H55.264C55.6404 21.479 56.0014 21.6283 56.2676 21.894C56.5338 22.1597 56.6833 22.52 56.6833 22.8957C56.6833 23.2714 56.5338 23.6318 56.2676 23.8975C56.0014 24.1631 55.6404 24.3124 55.264 24.3124H51.469C53.8245 25.9619 55.677 28.2295 56.8217 30.8645C56.898 31.0415 56.9725 31.2186 57.0435 31.3957C58.1092 31.486 59.1019 31.9733 59.8241 32.7608C60.5464 33.5482 60.9452 34.5781 60.9414 35.6457ZM58.1027 35.6457C58.1027 35.27 57.9531 34.9097 57.687 34.644C57.4208 34.3783 57.0598 34.229 56.6833 34.229H56.034C55.7317 34.2294 55.4372 34.1334 55.1934 33.955C54.9496 33.7766 54.7692 33.5252 54.6785 33.2374C53.8653 30.6472 52.244 28.3843 50.0513 26.7787C47.8587 25.1731 45.2093 24.309 42.4898 24.3124H36.8124C34.3333 24.3123 31.9078 25.0321 29.8316 26.3842C27.7553 27.7362 26.1181 29.662 25.1196 31.9268C24.1211 34.1915 23.8043 36.6974 24.208 39.1387C24.6117 41.58 25.7184 43.8514 27.3932 45.6757C27.5212 45.8147 27.6202 45.9779 27.6841 46.1556L30.0066 52.6457H32.2633L32.9411 50.7527C33.0395 50.4776 33.2207 50.2396 33.4598 50.0713C33.699 49.903 33.9844 49.8125 34.277 49.8124H46.4445C46.7371 49.8125 47.0225 49.903 47.2617 50.0713C47.5008 50.2396 47.682 50.4776 47.7804 50.7527L48.4582 52.6457H50.7149L53.928 43.6694C54.0264 43.3943 54.2076 43.1563 54.4467 42.988C54.6859 42.8196 54.9713 42.7292 55.264 42.729H56.6833C57.0598 42.729 57.4208 42.5798 57.687 42.3141C57.9531 42.0484 58.1027 41.6881 58.1027 41.3124V35.6457Z" fill="#F1F1F1"/>
</svg>
