<svg width="65" height="65" viewBox="0 0 65 65" fill="none" xmlns="http://www.w3.org/2000/svg">
<circle cx="32.5" cy="32.5" r="32.5" fill="white"/>
<path d="M32.5 49C31.8321 49 31.2719 48.7737 30.8194 48.3211C30.3668 47.8686 30.1413 47.3091 30.1429 46.6429V34.8571H18.3571C17.6893 34.8571 17.1291 34.6309 16.6765 34.1783C16.2239 33.7257 15.9984 33.1663 16 32.5C16 31.8321 16.2263 31.2719 16.6789 30.8194C17.1314 30.3668 17.6909 30.1413 18.3571 30.1429H30.1429V18.3571C30.1429 17.6893 30.3691 17.1291 30.8217 16.6765C31.2743 16.2239 31.8337 15.9984 32.5 16C33.1679 16 33.7281 16.2263 34.1806 16.6789C34.6332 17.1314 34.8587 17.6909 34.8571 18.3571V30.1429H46.6429C47.3107 30.1429 47.8709 30.3691 48.3235 30.8217C48.7761 31.2743 49.0016 31.8337 49 32.5C49 33.1679 48.7737 33.7281 48.3211 34.1806C47.8686 34.6332 47.3091 34.8587 46.6429 34.8571H34.8571V46.6429C34.8571 47.3107 34.6309 47.8709 34.1783 48.3235C33.7257 48.7761 33.1663 49.0016 32.5 49Z" fill="url(#paint0_linear_35_730)"/>
<defs>
<linearGradient id="paint0_linear_35_730" x1="49" y1="16" x2="35.1797" y2="55.6802" gradientUnits="userSpaceOnUse">
<stop stop-color="#FF0000"/>
<stop offset="1" stop-color="#0066FF"/>
</linearGradient>
</defs>
</svg>
