<svg width="65" height="65" viewBox="0 0 65 65" fill="none" xmlns="http://www.w3.org/2000/svg">
<circle cx="32.5" cy="32.5" r="32.5" fill="#2D2D2D"/>
<g style="mix-blend-mode:screen">
<path d="M32.5 49.2434C31.8321 49.2434 31.2719 49.0154 30.8194 48.5595C30.3668 48.1036 30.1413 47.54 30.1429 46.8688V34.9962H18.3571C17.6893 34.9962 17.1291 34.7683 16.6765 34.3123C16.2239 33.8564 15.9984 33.2929 16 32.6217C16 31.9489 16.2263 31.3846 16.6789 30.9286C17.1314 30.4727 17.6909 30.2456 18.3571 30.2472H30.1429V18.3745C30.1429 17.7018 30.3691 17.1374 30.8217 16.6815C31.2743 16.2256 31.8337 15.9984 32.5 16C33.1679 16 33.7281 16.228 34.1806 16.6839C34.6332 17.1398 34.8587 17.7033 34.8571 18.3745V30.2472H46.6429C47.3107 30.2472 47.8709 30.4751 48.3235 30.931C48.7761 31.3869 49.0016 31.9505 49 32.6217C49 33.2945 48.7737 33.8588 48.3211 34.3147C47.8686 34.7706 47.3091 34.9978 46.6429 34.9962H34.8571V46.8688C34.8571 47.5416 34.6309 48.106 34.1783 48.5619C33.7257 49.0178 33.1663 49.2449 32.5 49.2434Z" fill="url(#paint0_linear_283_12024)"/>
</g>
<g style="mix-blend-mode:screen">
<path d="M32.5 49.2434C31.8321 49.2434 31.2719 49.0154 30.8194 48.5595C30.3668 48.1036 30.1413 47.54 30.1429 46.8688V34.9962H18.3571C17.6893 34.9962 17.1291 34.7683 16.6765 34.3123C16.2239 33.8564 15.9984 33.2929 16 32.6217C16 31.9489 16.2263 31.3846 16.6789 30.9286C17.1314 30.4727 17.6909 30.2456 18.3571 30.2472H30.1429V18.3745C30.1429 17.7018 30.3691 17.1374 30.8217 16.6815C31.2743 16.2256 31.8337 15.9984 32.5 16C33.1679 16 33.7281 16.228 34.1806 16.6839C34.6332 17.1398 34.8587 17.7033 34.8571 18.3745V30.2472H46.6429C47.3107 30.2472 47.8709 30.4751 48.3235 30.931C48.7761 31.3869 49.0016 31.9505 49 32.6217C49 33.2945 48.7737 33.8588 48.3211 34.3147C47.8686 34.7706 47.3091 34.9978 46.6429 34.9962H34.8571V46.8688C34.8571 47.5416 34.6309 48.106 34.1783 48.5619C33.7257 49.0178 33.1663 49.2449 32.5 49.2434Z" fill="url(#paint1_linear_283_12024)"/>
</g>
<defs>
<linearGradient id="paint0_linear_283_12024" x1="49" y1="16" x2="34.9975" y2="55.9089" gradientUnits="userSpaceOnUse">
<stop stop-color="#FF0000"/>
<stop offset="1" stop-color="#0066FF"/>
</linearGradient>
<linearGradient id="paint1_linear_283_12024" x1="49" y1="16" x2="34.9975" y2="55.9089" gradientUnits="userSpaceOnUse">
<stop stop-color="#FF0000"/>
<stop offset="1" stop-color="#0066FF"/>
</linearGradient>
</defs>
</svg>
