<svg width="65" height="65" viewBox="0 0 65 65" fill="none" xmlns="http://www.w3.org/2000/svg">
<circle cx="32.5" cy="32.5" r="32.5" fill="#F1F1F1"/>
<path d="M44.5999 18.6654C43.8839 18.6654 43.1971 18.9463 42.6907 19.4465C42.1844 19.9466 41.8999 20.6249 41.8999 21.3322C41.8999 22.0395 42.1844 22.7178 42.6907 23.2179C43.1971 23.7181 43.8839 23.999 44.5999 23.999C45.316 23.999 46.0028 23.7181 46.5092 23.2179C47.0155 22.7178 47.3 22.0395 47.3 21.3322C47.3 20.6249 47.0155 19.9466 46.5092 19.4465C46.0028 18.9463 45.316 18.6654 44.5999 18.6654ZM39.1999 21.3322C39.2002 20.2412 39.5392 19.1766 40.1712 18.2818C40.8032 17.3871 41.6978 16.7053 42.7344 16.3284C43.7709 15.9515 44.8996 15.8976 45.9681 16.174C47.0366 16.4504 47.9936 17.0438 48.71 17.8742C49.4265 18.7046 49.8679 19.732 49.9747 20.8178C50.0815 21.9037 49.8486 22.9958 49.3075 23.9469C48.7663 24.898 47.9429 25.6622 46.9482 26.1367C45.9536 26.6111 44.8356 26.7729 43.7449 26.6001L40.0765 32.5703C40.8538 33.6958 41.1656 35.0724 40.9479 36.4177C40.7302 37.763 39.9995 38.9751 38.9058 39.8052C37.8121 40.6353 36.4382 41.0206 35.066 40.8819C33.6938 40.7433 32.4273 40.0913 31.5264 39.0596L24.7926 42.3843C24.862 43.6793 24.4514 44.9549 23.6375 45.9725C22.8237 46.9901 21.6624 47.68 20.3709 47.9131C19.0793 48.1462 17.746 47.9066 16.6204 47.2391C15.4948 46.5716 14.6539 45.5219 14.2551 44.2864C13.8563 43.0509 13.9269 41.7142 14.4537 40.5263C14.9805 39.3385 15.9273 38.3809 17.1171 37.8327C18.307 37.2844 19.6582 37.1831 20.9182 37.5477C22.1782 37.9123 23.2605 38.7178 23.9627 39.8135L30.3186 36.6737C30.1048 35.6909 30.1764 34.6685 30.5254 33.7242C30.8743 32.78 31.4862 31.9523 32.2907 31.3367C33.0952 30.721 34.0595 30.3424 35.0723 30.2446C36.0852 30.1467 37.1054 30.3335 38.0155 30.7835L41.2519 25.5174C40.6117 25.0185 40.0944 24.3827 39.7389 23.6577C39.3835 22.9328 39.1992 22.1377 39.1999 21.3322ZM35.5999 32.8885C34.8838 32.8885 34.197 33.1695 33.6907 33.6696C33.1843 34.1698 32.8998 34.8481 32.8998 35.5554C32.8998 36.2627 33.1843 36.941 33.6907 37.4411C34.197 37.9413 34.8838 38.2222 35.5999 38.2222C36.316 38.2222 37.0027 37.9413 37.5091 37.4411C38.0154 36.941 38.2999 36.2627 38.2999 35.5554C38.2999 34.8481 38.0154 34.1698 37.5091 33.6696C37.0027 33.1695 36.316 32.8885 35.5999 32.8885ZM19.3997 40.0001C18.6836 40.0001 17.9968 40.2811 17.4905 40.7812C16.9841 41.2814 16.6997 41.9597 16.6997 42.667C16.6997 43.3743 16.9841 44.0526 17.4905 44.5527C17.9968 45.0529 18.6836 45.3338 19.3997 45.3338C20.1158 45.3338 20.8026 45.0529 21.3089 44.5527C21.8153 44.0526 22.0997 43.3743 22.0997 42.667C22.0997 41.9597 21.8153 41.2814 21.3089 40.7812C20.8026 40.2811 20.1158 40.0001 19.3997 40.0001Z" fill="url(#paint0_linear_872_1169)"/>
<defs>
<linearGradient id="paint0_linear_872_1169" x1="50" y1="16" x2="37.8108" y2="55.3717" gradientUnits="userSpaceOnUse">
<stop stop-color="#FF0000"/>
<stop offset="1" stop-color="#0066FF"/>
</linearGradient>
</defs>
</svg>
