<svg width="65" height="65" viewBox="0 0 65 65" fill="none" xmlns="http://www.w3.org/2000/svg">
<circle cx="32.5" cy="32.5" r="32.5" fill="#000743" fill-opacity="0.25"/>
<path d="M17.75 19.9375C17.75 19.6226 17.8751 19.3205 18.0978 19.0978C18.3205 18.8751 18.6226 18.75 18.9375 18.75C19.2524 18.75 19.5545 18.8751 19.7772 19.0978C19.9999 19.3205 20.125 19.6226 20.125 19.9375V44.875H45.0625C45.3774 44.875 45.6795 45.0001 45.9022 45.2228C46.1249 45.4455 46.25 45.7476 46.25 46.0625C46.25 46.3774 46.1249 46.6795 45.9022 46.9022C45.6795 47.1249 45.3774 47.25 45.0625 47.25H18.9375C18.6226 47.25 18.3205 47.1249 18.0978 46.9022C17.8751 46.6795 17.75 46.3774 17.75 46.0625V19.9375ZM39.9167 20.3333C39.2929 20.3333 38.6752 20.4562 38.0989 20.6949C37.5226 20.9336 36.999 21.2835 36.5579 21.7246C36.1168 22.1657 35.7669 22.6893 35.5282 23.2656C35.2895 23.8419 35.1667 24.4596 35.1667 25.0833C35.1667 25.7071 35.2895 26.3248 35.5282 26.9011C35.7669 27.4774 36.1168 28.001 36.5579 28.4421C36.999 28.8832 37.5226 29.2331 38.0989 29.4718C38.6752 29.7105 39.2929 29.8333 39.9167 29.8333C41.1764 29.8333 42.3846 29.3329 43.2754 28.4421C44.1662 27.5513 44.6667 26.3431 44.6667 25.0833C44.6667 23.8236 44.1662 22.6154 43.2754 21.7246C42.3846 20.8338 41.1764 20.3333 39.9167 20.3333ZM37.5417 25.0833C37.5417 24.4534 37.7919 23.8494 38.2373 23.404C38.6827 22.9586 39.2868 22.7083 39.9167 22.7083C40.5466 22.7083 41.1506 22.9586 41.596 23.404C42.0414 23.8494 42.2917 24.4534 42.2917 25.0833C42.2917 25.7132 42.0414 26.3173 41.596 26.7627C41.1506 27.2081 40.5466 27.4583 39.9167 27.4583C39.2868 27.4583 38.6827 27.2081 38.2373 26.7627C37.7919 26.3173 37.5417 25.7132 37.5417 25.0833ZM22.5 28.25C22.5 26.9902 23.0004 25.782 23.8912 24.8912C24.782 24.0004 25.9902 23.5 27.25 23.5C28.5098 23.5 29.718 24.0004 30.6088 24.8912C31.4996 25.782 32 26.9902 32 28.25C32 29.5098 31.4996 30.718 30.6088 31.6088C29.718 32.4996 28.5098 33 27.25 33C25.9902 33 24.782 32.4996 23.8912 31.6088C23.0004 30.718 22.5 29.5098 22.5 28.25ZM27.25 25.875C26.6201 25.875 26.016 26.1252 25.5706 26.5706C25.1252 27.016 24.875 27.6201 24.875 28.25C24.875 28.8799 25.1252 29.484 25.5706 29.9294C26.016 30.3748 26.6201 30.625 27.25 30.625C27.8799 30.625 28.484 30.3748 28.9294 29.9294C29.3748 29.484 29.625 28.8799 29.625 28.25C29.625 27.6201 29.3748 27.016 28.9294 26.5706C28.484 26.1252 27.8799 25.875 27.25 25.875ZM36.75 33C35.4902 33 34.282 33.5004 33.3912 34.3912C32.5004 35.282 32 36.4902 32 37.75C32 39.0098 32.5004 40.218 33.3912 41.1088C34.282 41.9996 35.4902 42.5 36.75 42.5C38.0098 42.5 39.218 41.9996 40.1088 41.1088C40.9996 40.218 41.5 39.0098 41.5 37.75C41.5 36.4902 40.9996 35.282 40.1088 34.3912C39.218 33.5004 38.0098 33 36.75 33ZM34.375 37.75C34.375 37.1201 34.6252 36.516 35.0706 36.0706C35.516 35.6252 36.1201 35.375 36.75 35.375C37.3799 35.375 37.984 35.6252 38.4294 36.0706C38.8748 36.516 39.125 37.1201 39.125 37.75C39.125 38.3799 38.8748 38.984 38.4294 39.4294C37.984 39.8748 37.3799 40.125 36.75 40.125C36.1201 40.125 35.516 39.8748 35.0706 39.4294C34.6252 38.984 34.375 38.3799 34.375 37.75Z" fill="white"/>
</svg>
