<svg width="65" height="65" viewBox="0 0 65 65" fill="none" xmlns="http://www.w3.org/2000/svg">
<circle cx="32.5" cy="32.5" r="32.5" fill="#000743" fill-opacity="0.25"/>
<g style="mix-blend-mode:plus-lighter">
<path fill-rule="evenodd" clip-rule="evenodd" d="M20.6483 18.5643C21.2341 17.9786 22.1839 17.9786 22.7696 18.5643L27.3946 23.1893C27.9804 23.7751 27.9804 24.7249 27.3946 25.3107C26.8089 25.8964 25.8591 25.8964 25.2733 25.3107L23.209 23.2463V40.6703L29.8983 33.981C30.4841 33.3952 31.4339 33.3952 32.0196 33.981C32.6054 34.5668 32.6054 35.5165 32.0196 36.1023L25.3303 42.7917H42.7543L40.69 40.7273C40.1042 40.1415 40.1042 39.1918 40.69 38.606C41.2758 38.0202 42.2255 38.0202 42.8113 38.606L47.4363 43.231C48.0221 43.8168 48.0221 44.7665 47.4363 45.3523L42.8113 49.9773C42.2255 50.5631 41.2758 50.5631 40.69 49.9773C40.1042 49.3915 40.1042 48.4418 40.69 47.856L42.7543 45.7917H21.709C20.8806 45.7917 20.209 45.1201 20.209 44.2917V23.2463L18.1446 25.3107C17.5589 25.8964 16.6091 25.8964 16.0233 25.3107C15.4375 24.7249 15.4375 23.7751 16.0233 23.1893L20.6483 18.5643Z" fill="url(#paint0_linear_1049_1040)"/>
</g>
<g style="mix-blend-mode:screen">
<path fill-rule="evenodd" clip-rule="evenodd" d="M20.6483 18.5643C21.2341 17.9786 22.1839 17.9786 22.7696 18.5643L27.3946 23.1893C27.9804 23.7751 27.9804 24.7249 27.3946 25.3107C26.8089 25.8964 25.8591 25.8964 25.2733 25.3107L23.209 23.2463V40.6703L29.8983 33.981C30.4841 33.3952 31.4339 33.3952 32.0196 33.981C32.6054 34.5668 32.6054 35.5165 32.0196 36.1023L25.3303 42.7917H42.7543L40.69 40.7273C40.1042 40.1415 40.1042 39.1918 40.69 38.606C41.2758 38.0202 42.2255 38.0202 42.8113 38.606L47.4363 43.231C48.0221 43.8168 48.0221 44.7665 47.4363 45.3523L42.8113 49.9773C42.2255 50.5631 41.2758 50.5631 40.69 49.9773C40.1042 49.3915 40.1042 48.4418 40.69 47.856L42.7543 45.7917H21.709C20.8806 45.7917 20.209 45.1201 20.209 44.2917V23.2463L18.1446 25.3107C17.5589 25.8964 16.6091 25.8964 16.0233 25.3107C15.4375 24.7249 15.4375 23.7751 16.0233 23.1893L20.6483 18.5643Z" fill="url(#paint1_linear_1049_1040)"/>
</g>
<defs>
<linearGradient id="paint0_linear_1049_1040" x1="47.8757" y1="18.125" x2="34.352" y2="56.9534" gradientUnits="userSpaceOnUse">
<stop stop-color="#FF0000"/>
<stop offset="1" stop-color="#0066FF"/>
</linearGradient>
<linearGradient id="paint1_linear_1049_1040" x1="47.8757" y1="18.125" x2="34.352" y2="56.9534" gradientUnits="userSpaceOnUse">
<stop stop-color="#FF0000"/>
<stop offset="1" stop-color="#0066FF"/>
</linearGradient>
</defs>
</svg>
