<svg width="65" height="65" viewBox="0 0 65 65" fill="none" xmlns="http://www.w3.org/2000/svg">
<circle cx="32.5" cy="32.5" r="32.5" fill="#000743" fill-opacity="0.25"/>
<path d="M22.4219 36.5313C21.2259 36.5313 20.0568 36.8859 19.0624 37.5503C18.068 38.2148 17.293 39.1592 16.8353 40.2641C16.3776 41.369 16.2579 42.5848 16.4912 43.7578C16.7245 44.9308 17.3004 46.0082 18.1461 46.8539C18.9918 47.6996 20.0692 48.2755 21.2422 48.5088C22.4152 48.7421 23.631 48.6224 24.7359 48.1647C25.8409 47.707 26.7852 46.932 27.4497 45.9376C28.1141 44.9432 28.4688 43.7741 28.4688 42.5781C28.4688 40.9744 27.8317 39.4364 26.6977 38.3023C25.5637 37.1683 24.0256 36.5313 22.4219 36.5313ZM22.4219 45.9375C21.7575 45.9375 21.108 45.7405 20.5555 45.3713C20.0031 45.0022 19.5725 44.4776 19.3182 43.8637C19.064 43.2499 18.9974 42.5744 19.1271 41.9227C19.2567 41.2711 19.5766 40.6725 20.0465 40.2027C20.5163 39.7329 21.1149 39.4129 21.7665 39.2833C22.4182 39.1537 23.0936 39.2202 23.7075 39.4745C24.3213 39.7287 24.846 40.1593 25.2151 40.7118C25.5842 41.2642 25.7813 41.9137 25.7813 42.5781C25.7813 43.4691 25.4273 44.3236 24.7973 44.9536C24.1673 45.5836 23.3129 45.9375 22.4219 45.9375ZM16.7681 28.8618L19.1784 26.4531L16.7681 24.0445C16.5159 23.7923 16.3743 23.4503 16.3743 23.0938C16.3743 22.7372 16.5159 22.3952 16.7681 22.143C17.0202 21.8909 17.3622 21.7493 17.7188 21.7493C18.0753 21.7493 18.4173 21.8909 18.6695 22.143L21.0781 24.5534L23.4868 22.143C23.739 21.8909 24.0809 21.7493 24.4375 21.7493C24.7941 21.7493 25.1361 21.8909 25.3882 22.143C25.6404 22.3952 25.782 22.7372 25.782 23.0938C25.782 23.4503 25.6404 23.7923 25.3882 24.0445L22.9779 26.4531L25.3882 28.8618C25.6404 29.1139 25.782 29.4559 25.782 29.8125C25.782 30.1691 25.6404 30.5111 25.3882 30.7632C25.1361 31.0153 24.7941 31.157 24.4375 31.157C24.0809 31.157 23.739 31.0153 23.4868 30.7632L21.0781 28.3529L18.6695 30.7632C18.4173 31.0153 18.0753 31.157 17.7188 31.157C17.3622 31.157 17.0202 31.0153 16.7681 30.7632C16.5159 30.5111 16.3743 30.1691 16.3743 29.8125C16.3743 29.4559 16.5159 29.1139 16.7681 28.8618ZM48.232 44.9868C48.3568 45.1116 48.4559 45.2599 48.5234 45.423C48.591 45.5861 48.6258 45.7609 48.6258 45.9375C48.6258 46.1141 48.591 46.2889 48.5234 46.452C48.4559 46.6151 48.3568 46.7634 48.232 46.8882C48.1071 47.0131 47.9589 47.1121 47.7958 47.1797C47.6327 47.2472 47.4578 47.282 47.2813 47.282C47.1047 47.282 46.9299 47.2472 46.7668 47.1797C46.6036 47.1121 46.4554 47.0131 46.3306 46.8882L43.9219 44.4779L41.5132 46.8882C41.2611 47.1404 40.9191 47.282 40.5625 47.282C40.2059 47.282 39.864 47.1404 39.6118 46.8882C39.3597 46.6361 39.218 46.2941 39.218 45.9375C39.218 45.5809 39.3597 45.2389 39.6118 44.9868L42.0222 42.5781L39.6118 40.1695C39.3597 39.9173 39.218 39.5753 39.218 39.2188C39.218 38.8622 39.3597 38.5202 39.6118 38.2681C39.864 38.0159 40.2059 37.8743 40.5625 37.8743C40.9191 37.8743 41.2611 38.0159 41.5132 38.2681L43.9219 40.6784L46.3306 38.2681C46.5827 38.0159 46.9247 37.8743 47.2813 37.8743C47.6379 37.8743 47.9798 38.0159 48.232 38.2681C48.4841 38.5202 48.6258 38.8622 48.6258 39.2188C48.6258 39.5753 48.4841 39.9173 48.232 40.1695L45.8216 42.5781L48.232 44.9868ZM40.6415 29.9519C39.6034 33.7027 36.3885 36.9445 32.8259 37.8347C32.716 37.862 32.6032 37.8755 32.4899 37.875C32.1623 37.8744 31.8461 37.7541 31.6009 37.5367C31.3558 37.3193 31.1985 37.0198 31.1586 36.6946C31.1188 36.3694 31.1992 36.0408 31.3847 35.7706C31.5701 35.5005 31.8479 35.3075 32.1658 35.2278C34.7911 34.5711 37.2636 32.0515 38.0447 29.2347C38.5805 27.303 38.5855 24.3636 35.5739 21.357L35.1875 20.9622V24.4375C35.1875 24.7939 35.046 25.1357 34.7939 25.3877C34.5419 25.6397 34.2002 25.7813 33.8438 25.7813C33.4874 25.7813 33.1456 25.6397 32.8936 25.3877C32.6416 25.1357 32.5 24.7939 32.5 24.4375V17.7188C32.5 17.3624 32.6416 17.0206 32.8936 16.7686C33.1456 16.5166 33.4874 16.375 33.8438 16.375H40.5625C40.9189 16.375 41.2607 16.5166 41.5127 16.7686C41.7647 17.0206 41.9063 17.3624 41.9063 17.7188C41.9063 18.0751 41.7647 18.4169 41.5127 18.6689C41.2607 18.9209 40.9189 19.0625 40.5625 19.0625H37.0873L37.482 19.4555C40.5457 22.521 41.6678 26.2482 40.6415 29.9519Z" fill="white"/>
</svg>
