<svg width="65" height="65" viewBox="0 0 65 65" fill="none" xmlns="http://www.w3.org/2000/svg">
<circle cx="32.5" cy="32.5" r="32.5" fill="#F1F1F1"/>
<path d="M33.0003 30.416C35.1 30.416 37.1136 31.2501 38.5983 32.7348C40.0829 34.2194 40.917 36.2331 40.917 38.3327V47.8327H37.7503V38.3327C37.7504 37.1211 37.2875 35.9553 36.4563 35.0738C35.6251 34.1923 34.4885 33.6617 33.279 33.5906L33.0003 33.5827C31.7887 33.5826 30.6229 34.0455 29.7414 34.8767C28.8599 35.7079 28.3293 36.8445 28.2582 38.054L28.2503 38.3327V47.8327H25.0837V38.3327C25.0837 36.2331 25.9177 34.2194 27.4024 32.7348C28.8871 31.2501 30.9007 30.416 33.0003 30.416ZM22.7087 35.166C23.1504 35.166 23.5795 35.2183 23.9912 35.3148C23.7205 36.1208 23.5601 36.9596 23.5146 37.8086L23.5003 38.3327V38.4688C23.3183 38.4037 23.129 38.3612 22.9367 38.3422L22.7087 38.3327C22.1185 38.3327 21.5495 38.5524 21.1125 38.949C20.6755 39.3456 20.4018 39.8907 20.3447 40.4781L20.3337 40.7077V47.8327H17.167V40.7077C17.167 39.2379 17.7508 37.8284 18.7901 36.7891C19.8294 35.7499 21.2389 35.166 22.7087 35.166ZM43.292 35.166C44.7617 35.166 46.1713 35.7499 47.2105 36.7891C48.2498 37.8284 48.8337 39.2379 48.8337 40.7077V47.8327H45.667V40.7077C45.667 40.1175 45.4473 39.5485 45.0507 39.1115C44.6541 38.6745 44.109 38.4008 43.5216 38.3438L43.292 38.3327C43.0149 38.3327 42.7489 38.3802 42.5003 38.4673V38.3327C42.5003 37.2782 42.3293 36.2648 42.0127 35.318C42.4212 35.2183 42.8518 35.166 43.292 35.166ZM22.7087 25.666C23.7585 25.666 24.7653 26.0831 25.5076 26.8254C26.25 27.5677 26.667 28.5745 26.667 29.6243C26.667 30.6742 26.25 31.681 25.5076 32.4233C24.7653 33.1656 23.7585 33.5827 22.7087 33.5827C21.6588 33.5827 20.652 33.1656 19.9097 32.4233C19.1674 31.681 18.7503 30.6742 18.7503 29.6243C18.7503 28.5745 19.1674 27.5677 19.9097 26.8254C20.652 26.0831 21.6588 25.666 22.7087 25.666ZM43.292 25.666C44.3418 25.666 45.3486 26.0831 46.091 26.8254C46.8333 27.5677 47.2503 28.5745 47.2503 29.6243C47.2503 30.6742 46.8333 31.681 46.091 32.4233C45.3486 33.1656 44.3418 33.5827 43.292 33.5827C42.2422 33.5827 41.2354 33.1656 40.493 32.4233C39.7507 31.681 39.3337 30.6742 39.3337 29.6243C39.3337 28.5745 39.7507 27.5677 40.493 26.8254C41.2354 26.0831 42.2422 25.666 43.292 25.666ZM22.7087 28.8327C22.4987 28.8327 22.2973 28.9161 22.1489 29.0646C22.0004 29.213 21.917 29.4144 21.917 29.6243C21.917 29.8343 22.0004 30.0357 22.1489 30.1841C22.2973 30.3326 22.4987 30.416 22.7087 30.416C22.9186 30.416 23.12 30.3326 23.2685 30.1841C23.4169 30.0357 23.5003 29.8343 23.5003 29.6243C23.5003 29.4144 23.4169 29.213 23.2685 29.0646C23.12 28.9161 22.9186 28.8327 22.7087 28.8327ZM43.292 28.8327C43.082 28.8327 42.8807 28.9161 42.7322 29.0646C42.5837 29.213 42.5003 29.4144 42.5003 29.6243C42.5003 29.8343 42.5837 30.0357 42.7322 30.1841C42.8807 30.3326 43.082 30.416 43.292 30.416C43.502 30.416 43.7033 30.3326 43.8518 30.1841C44.0002 30.0357 44.0837 29.8343 44.0837 29.6243C44.0837 29.4144 44.0002 29.213 43.8518 29.0646C43.7033 28.9161 43.502 28.8327 43.292 28.8327ZM33.0003 16.166C34.68 16.166 36.2909 16.8333 37.4787 18.021C38.6664 19.2087 39.3337 20.8196 39.3337 22.4993C39.3337 24.1791 38.6664 25.79 37.4787 26.9777C36.2909 28.1654 34.68 28.8327 33.0003 28.8327C31.3206 28.8327 29.7097 28.1654 28.522 26.9777C27.3343 25.79 26.667 24.1791 26.667 22.4993C26.667 20.8196 27.3343 19.2087 28.522 18.021C29.7097 16.8333 31.3206 16.166 33.0003 16.166ZM33.0003 19.3327C32.1605 19.3327 31.355 19.6663 30.7612 20.2602C30.1673 20.854 29.8337 21.6595 29.8337 22.4993C29.8337 23.3392 30.1673 24.1447 30.7612 24.7385C31.355 25.3324 32.1605 25.666 33.0003 25.666C33.8402 25.666 34.6456 25.3324 35.2395 24.7385C35.8334 24.1447 36.167 23.3392 36.167 22.4993C36.167 21.6595 35.8334 20.854 35.2395 20.2602C34.6456 19.6663 33.8402 19.3327 33.0003 19.3327Z" fill="url(#paint0_linear_872_1186)"/>
<defs>
<linearGradient id="paint0_linear_872_1186" x1="48.8337" y1="16.166" x2="35.5717" y2="54.2429" gradientUnits="userSpaceOnUse">
<stop stop-color="#FF0000"/>
<stop offset="1" stop-color="#0066FF"/>
</linearGradient>
</defs>
</svg>
