<svg width="43" height="42" viewBox="0 0 43 42" fill="none" xmlns="http://www.w3.org/2000/svg">
<path d="M17.2503 6.58332L21.417 2.41666M13.0837 29.5L29.7503 12.8333M21.417 39.9167L25.5837 35.75M30.792 35.75C32.1733 35.75 33.4981 35.2013 34.4748 34.2245C35.4516 33.2478 36.0003 31.923 36.0003 30.5417C36.0003 29.1603 35.4516 27.8356 34.4748 26.8588C33.4981 25.8821 32.1733 25.3333 30.792 25.3333C29.4107 25.3333 28.0859 25.8821 27.1091 26.8588C26.1324 27.8356 25.5837 29.1603 25.5837 30.5417C25.5837 31.923 26.1324 33.2478 27.1091 34.2245C28.0859 35.2013 29.4107 35.75 30.792 35.75ZM12.042 17C13.4233 17 14.7481 16.4513 15.7248 15.4745C16.7016 14.4978 17.2503 13.173 17.2503 11.7917C17.2503 10.4103 16.7016 9.08556 15.7248 8.10881C14.7481 7.13206 13.4233 6.58332 12.042 6.58332C10.6607 6.58332 9.3359 7.13206 8.35914 8.10881C7.38239 9.08556 6.83366 10.4103 6.83366 11.7917C6.83366 13.173 7.38239 14.4978 8.35914 15.4745C9.3359 16.4513 10.6607 17 12.042 17ZM7.87533 39.9167C9.25666 39.9167 10.5814 39.3679 11.5582 38.3912C12.5349 37.4144 13.0837 36.0897 13.0837 34.7083C13.0837 33.327 12.5349 32.0022 11.5582 31.0255C10.5814 30.0487 9.25666 29.5 7.87533 29.5C6.49399 29.5 5.16923 30.0487 4.19248 31.0255C3.21573 32.0022 2.66699 33.327 2.66699 34.7083C2.66699 36.0897 3.21573 37.4144 4.19248 38.3912C5.16923 39.3679 6.49399 39.9167 7.87533 39.9167ZM34.9587 12.8333C36.34 12.8333 37.6648 12.2846 38.6415 11.3078C39.6183 10.3311 40.167 9.00633 40.167 7.62499C40.167 6.24365 39.6183 4.91889 38.6415 3.94214C37.6648 2.96539 36.34 2.41666 34.9587 2.41666C33.5773 2.41666 32.2526 2.96539 31.2758 3.94214C30.2991 4.91889 29.7503 6.24365 29.7503 7.62499C29.7503 9.00633 30.2991 10.3311 31.2758 11.3078C32.2526 12.2846 33.5773 12.8333 34.9587 12.8333Z" stroke="#F1F1F1" stroke-width="4" stroke-linecap="round" stroke-linejoin="round"/>
</svg>
