<svg width="40" height="40" viewBox="0 0 40 40" fill="none" xmlns="http://www.w3.org/2000/svg">
<path d="M16.2778 9.22222L19.5 6M13.0556 26.9444L25.9444 14.0556M19.5 35L22.7222 31.7778M26.75 31.7778C27.8182 31.7778 28.8427 31.3534 29.5981 30.5981C30.3534 29.8427 30.7778 28.8182 30.7778 27.75C30.7778 26.6818 30.3534 25.6573 29.5981 24.9019C28.8427 24.1466 27.8182 23.7222 26.75 23.7222C25.6818 23.7222 24.6573 24.1466 23.9019 24.9019C23.1466 25.6573 22.7222 26.6818 22.7222 27.75C22.7222 28.8182 23.1466 29.8427 23.9019 30.5981C24.6573 31.3534 25.6818 31.7778 26.75 31.7778ZM12.25 17.2778C13.3182 17.2778 14.3427 16.8534 15.0981 16.0981C15.8534 15.3427 16.2778 14.3182 16.2778 13.25C16.2778 12.1818 15.8534 11.1573 15.0981 10.4019C14.3427 9.64658 13.3182 9.22222 12.25 9.22222C11.1818 9.22222 10.1573 9.64658 9.40193 10.4019C8.64658 11.1573 8.22222 12.1818 8.22222 13.25C8.22222 14.3182 8.64658 15.3427 9.40193 16.0981C10.1573 16.8534 11.1818 17.2778 12.25 17.2778ZM9.02778 35C10.096 35 11.1205 34.5756 11.8758 33.8203C12.6312 33.0649 13.0556 32.0405 13.0556 30.9722C13.0556 29.904 12.6312 28.8795 11.8758 28.1242C11.1205 27.3688 10.096 26.9444 9.02778 26.9444C7.95954 26.9444 6.93506 27.3688 6.17971 28.1242C5.42435 28.8795 5 29.904 5 30.9722C5 32.0405 5.42435 33.0649 6.17971 33.8203C6.93506 34.5756 7.95954 35 9.02778 35ZM29.9722 14.0556C31.0405 14.0556 32.0649 13.6312 32.8203 12.8758C33.5756 12.1205 34 11.096 34 10.0278C34 8.95954 33.5756 7.93506 32.8203 7.17971C32.0649 6.42435 31.0405 6 29.9722 6C28.904 6 27.8795 6.42435 27.1242 7.17971C26.3688 7.93506 25.9444 8.95954 25.9444 10.0278C25.9444 11.096 26.3688 12.1205 27.1242 12.8758C27.8795 13.6312 28.904 14.0556 29.9722 14.0556Z" stroke="#0E5EF1" stroke-width="4" stroke-linecap="round" stroke-linejoin="round"/>
</svg>
