<svg width="78" height="78" viewBox="0 0 78 78" fill="none" xmlns="http://www.w3.org/2000/svg">
<circle cx="39" cy="39.0007" r="39" fill="#2A3571"/>
<path fill-rule="evenodd" clip-rule="evenodd" d="M40.1751 20.5559C40.7593 21.1402 40.7593 22.0874 40.1751 22.6717L36.2853 26.5614C36.1174 26.7293 35.9196 26.8489 35.7091 26.9203C36.3662 27.9396 36.7235 29.1343 36.7235 30.3658C36.7235 32.0521 36.0536 33.6693 34.8612 34.8617C33.6688 36.0541 32.0515 36.724 30.3652 36.724C28.6789 36.724 27.0617 36.0541 25.8692 34.8617C24.6768 33.6693 24.007 32.0521 24.007 30.3658C24.007 28.6795 24.6768 27.0622 25.8692 25.8698C27.0617 24.6774 28.6789 24.0075 30.3652 24.0075C31.5967 24.0075 32.7914 24.3648 33.8107 25.0219C33.8821 24.8114 34.0017 24.6135 34.1695 24.4457L38.0593 20.5559C38.6436 19.9717 39.5908 19.9717 40.1751 20.5559ZM47.2629 21.98C48.4554 20.7876 50.0726 20.1177 51.7589 20.1177C53.4452 20.1177 55.0625 20.7876 56.2549 21.98C57.4473 23.1724 58.1172 24.7897 58.1172 26.476C58.1172 28.1623 57.4473 29.7796 56.2549 30.972C55.0625 32.1644 53.4452 32.8343 51.7589 32.8343C50.5274 32.8343 49.3327 32.477 48.3135 31.8199C48.2421 32.0304 48.1224 32.2282 47.9546 32.3961L32.3955 47.9551C32.2277 48.123 32.0299 48.2426 31.8193 48.314C32.4765 49.3333 32.8337 50.528 32.8337 51.7595C32.8337 53.4458 32.1638 55.063 30.9714 56.2554C29.779 57.4479 28.1618 58.1177 26.4755 58.1177C24.7891 58.1177 23.1719 57.4479 21.9795 56.2554C20.7871 55.063 20.1172 53.4458 20.1172 51.7595C20.1172 50.0732 20.7871 48.4559 21.9795 47.2635C23.1719 46.0711 24.7891 45.4012 26.4755 45.4012C27.707 45.4012 28.9016 45.7585 29.9209 46.4156C29.9923 46.2051 30.1119 46.0072 30.2798 45.8394L45.8388 30.2803C46.0067 30.1125 46.2045 29.9929 46.4151 29.9215C45.7579 28.9022 45.4007 27.7075 45.4007 26.476C45.4007 24.7897 46.0705 23.1724 47.2629 21.98ZM51.7589 23.1099C50.8662 23.1099 50.01 23.4645 49.3787 24.0958C48.7474 24.7271 48.3928 25.5832 48.3928 26.476C48.3928 27.3688 48.7474 28.225 49.3787 28.8562C50.01 29.4875 50.8662 29.8421 51.7589 29.8421C52.6517 29.8421 53.5079 29.4875 54.1391 28.8562C54.7704 28.225 55.1251 27.3688 55.1251 26.476C55.1251 25.5832 54.7704 24.7271 54.1391 24.0958C53.5079 23.4645 52.6517 23.1099 51.7589 23.1099ZM30.3652 26.9996C29.4725 26.9996 28.6163 27.3543 27.985 27.9855C27.3537 28.6168 26.9991 29.473 26.9991 30.3658C26.9991 31.2585 27.3537 32.1147 27.985 32.746C28.6163 33.3773 29.4725 33.7319 30.3652 33.7319C31.258 33.7319 32.1142 33.3773 32.7454 32.746C33.3767 32.1147 33.7314 31.2585 33.7314 30.3658C33.7314 29.473 33.3767 28.6168 32.7454 27.9855C32.1142 27.3543 31.258 26.9996 30.3652 26.9996ZM43.3732 43.3737C44.5656 42.1813 46.1828 41.5114 47.8692 41.5114C49.5555 41.5114 51.1727 42.1813 52.3651 43.3737C53.5575 44.5661 54.2274 46.1834 54.2274 47.8697C54.2274 49.556 53.5575 51.1733 52.3651 52.3657C51.1727 53.5581 49.5555 54.228 47.8692 54.228C46.6376 54.228 45.443 53.8707 44.4237 53.2136C44.3523 53.4241 44.2327 53.6219 44.0648 53.7898L40.1751 57.6796C39.5908 58.2638 38.6436 58.2638 38.0593 57.6796C37.4751 57.0953 37.4751 56.148 38.0593 55.5638L41.9491 51.674C42.1169 51.5062 42.3147 51.3866 42.5253 51.3152C41.8682 50.2959 41.5109 49.1012 41.5109 47.8697C41.5109 46.1834 42.1808 44.5661 43.3732 43.3737ZM47.8692 44.5036C46.9764 44.5036 46.1202 44.8582 45.4889 45.4895C44.8577 46.1208 44.503 46.9769 44.503 47.8697C44.503 48.7625 44.8577 49.6187 45.4889 50.2499C46.1202 50.8812 46.9764 51.2358 47.8692 51.2358C48.7619 51.2358 49.6181 50.8812 50.2494 50.2499C50.8807 49.6187 51.2353 48.7625 51.2353 47.8697C51.2353 46.9769 50.8807 46.1208 50.2494 45.4895C49.6181 44.8582 48.7619 44.5036 47.8692 44.5036ZM26.4755 48.3933C25.5827 48.3933 24.7265 48.748 24.0952 49.3792C23.464 50.0105 23.1093 50.8667 23.1093 51.7595C23.1093 52.6522 23.464 53.5084 24.0952 54.1397C24.7265 54.771 25.5827 55.1256 26.4755 55.1256C27.3682 55.1256 28.2244 54.771 28.8557 54.1397C29.487 53.5084 29.8416 52.6522 29.8416 51.7595C29.8416 50.8667 29.487 50.0105 28.8557 49.3792C28.2244 48.748 27.3682 48.3933 26.4755 48.3933Z" fill="#F1F1F1"/>
</svg>
