<svg width="65" height="65" viewBox="0 0 65 65" fill="none" xmlns="http://www.w3.org/2000/svg">
<circle cx="32.5" cy="32.5007" r="32.5" fill="#2D2D2D"/>
<g style="mix-blend-mode:screen">
<path fill-rule="evenodd" clip-rule="evenodd" d="M17.168 27.7134C17.168 21.8906 21.8882 17.1703 27.711 17.1703C33.0245 17.1703 37.42 21.1011 38.1481 26.2134H26.851C26.0225 26.2134 25.351 26.885 25.351 27.7134V37.9912C20.6644 36.9195 17.168 32.7248 17.168 27.7134ZM25.351 41.0515C18.9964 39.9348 14.168 34.388 14.168 27.7134C14.168 20.2338 20.2314 14.1703 27.711 14.1703C34.6836 14.1703 40.4255 19.4397 41.1719 26.2134H49.2165C50.045 26.2134 50.7165 26.885 50.7165 27.7134V50.079C50.7165 50.9075 50.045 51.579 49.2165 51.579H26.851C26.0225 51.579 25.351 50.9075 25.351 50.079V41.0515ZM28.351 48.579V29.2134H47.7165V48.579H28.351Z" fill="url(#paint0_linear_283_9609)"/>
</g>
<g style="mix-blend-mode:screen">
<path fill-rule="evenodd" clip-rule="evenodd" d="M17.168 27.7134C17.168 21.8906 21.8882 17.1703 27.711 17.1703C33.0245 17.1703 37.42 21.1011 38.1481 26.2134H26.851C26.0225 26.2134 25.351 26.885 25.351 27.7134V37.9912C20.6644 36.9195 17.168 32.7248 17.168 27.7134ZM25.351 41.0515C18.9964 39.9348 14.168 34.388 14.168 27.7134C14.168 20.2338 20.2314 14.1703 27.711 14.1703C34.6836 14.1703 40.4255 19.4397 41.1719 26.2134H49.2165C50.045 26.2134 50.7165 26.885 50.7165 27.7134V50.079C50.7165 50.9075 50.045 51.579 49.2165 51.579H26.851C26.0225 51.579 25.351 50.9075 25.351 50.079V41.0515ZM28.351 48.579V29.2134H47.7165V48.579H28.351Z" fill="url(#paint1_linear_283_9609)"/>
</g>
<defs>
<linearGradient id="paint0_linear_283_9609" x1="50.7165" y1="14.1703" x2="34.7634" y2="58.9211" gradientUnits="userSpaceOnUse">
<stop stop-color="#FF0000"/>
<stop offset="1" stop-color="#0066FF"/>
</linearGradient>
<linearGradient id="paint1_linear_283_9609" x1="50.7165" y1="14.1703" x2="34.7634" y2="58.9211" gradientUnits="userSpaceOnUse">
<stop stop-color="#FF0000"/>
<stop offset="1" stop-color="#0066FF"/>
</linearGradient>
</defs>
</svg>
