<svg width="65" height="65" viewBox="0 0 65 65" fill="none" xmlns="http://www.w3.org/2000/svg">
<circle cx="32.5" cy="32.5" r="32.5" fill="white"/>
<path fill-rule="evenodd" clip-rule="evenodd" d="M17.1694 27.7127C17.1694 21.8899 21.8897 17.1697 27.7124 17.1697C33.026 17.1697 37.4214 21.1004 38.1496 26.2128H26.8524C26.024 26.2128 25.3524 26.8843 25.3524 27.7128V37.9905C20.6659 36.9188 17.1694 32.7241 17.1694 27.7127ZM25.3524 41.0508C18.9979 39.9341 14.1694 34.3873 14.1694 27.7127C14.1694 20.2331 20.2328 14.1697 27.7124 14.1697C34.6851 14.1697 40.427 19.439 41.1733 26.2128H49.218C50.0464 26.2128 50.718 26.8843 50.718 27.7128V50.0784C50.718 50.9068 50.0464 51.5784 49.218 51.5784H26.8524C26.024 51.5784 25.3524 50.9068 25.3524 50.0784V41.0508ZM28.3524 48.5784V29.2128H47.718V48.5784H28.3524Z" fill="url(#paint0_linear_35_711)"/>
<defs>
<linearGradient id="paint0_linear_35_711" x1="50.718" y1="14.1697" x2="34.7648" y2="58.9204" gradientUnits="userSpaceOnUse">
<stop stop-color="#FF0000"/>
<stop offset="1" stop-color="#0066FF"/>
</linearGradient>
</defs>
</svg>
