<svg width="65" height="65" viewBox="0 0 65 65" fill="none" xmlns="http://www.w3.org/2000/svg">
<circle cx="32.5" cy="32.5" r="32.5" fill="#F1F1F1"/>
<g clip-path="url(#clip0_219_1350)">
<path d="M18.5965 47.561H36.1351C37.1872 47.5615 38.2269 47.3326 39.1827 46.8899C40.1386 46.4472 40.9878 45.8013 41.672 44.9965L50.9736 34.0705C51.1684 33.8421 51.3044 33.569 51.3697 33.2752C51.4349 32.9814 51.4274 32.676 51.3478 32.3858C51.2682 32.0956 51.1189 31.8296 50.9131 31.6112C50.7074 31.3928 50.4514 31.2287 50.1678 31.1334L46.5799 29.9292C45.7127 29.6454 44.7894 29.5812 43.8917 29.7422C42.994 29.9033 42.1496 30.2846 41.4331 30.8526L35.6264 35.528L34.5016 33.261C33.8989 32.0389 32.9685 31.0112 31.8156 30.2942C30.6627 29.5772 29.3334 29.1996 27.9784 29.2041H18.5965C16.5856 29.2041 14.9502 30.8507 14.9502 32.8755V43.8896C14.9502 45.9144 16.5856 47.561 18.5965 47.561ZM18.5965 32.8755H27.9784C29.3694 32.8755 30.6183 33.652 31.24 34.9039L32.0549 36.5468H24.0659V40.2182H35.0303C35.3108 40.2145 35.5866 40.1454 35.8361 40.0163L35.8416 40.0145L35.8489 40.0108H35.8543L35.858 40.009H35.8653L35.8671 40.0071C35.8835 40.0126 35.8726 40.0053 35.8726 40.0053C35.8908 40.0053 35.8762 40.0034 35.8762 40.0034H35.878L35.8817 40.0016L35.8872 39.9998L35.8908 39.9979L35.8944 39.9961L35.8999 39.9943L35.9036 39.9924C35.909 39.9924 35.9054 39.9906 35.9072 39.9906L35.9127 39.9869L35.9163 39.9851L35.92 39.9833L35.9254 39.9814L35.9291 39.9796H35.9309L35.9346 39.9777L35.94 39.9759L35.9437 39.9741C35.9601 39.9722 35.9491 39.9722 35.9491 39.9722L35.9528 39.9704C36.023 39.9277 36.0901 39.8799 36.1533 39.8272L43.7121 33.7382C44.1897 33.3564 44.8479 33.2371 45.4258 33.4317L46.4413 33.7731L38.9063 42.6266C38.5597 43.0229 38.1333 43.3404 37.6556 43.5582C37.1778 43.7759 36.6595 43.8889 36.1351 43.8896H18.5965V32.8755ZM40.4742 12.6829H40.4432C40.146 12.6866 38.6091 12.7545 36.8279 13.9771C35.0941 12.7876 33.5936 12.6921 33.24 12.6848L33.1853 12.6829H33.178C31.7176 12.6829 30.343 13.2575 29.3147 14.2947C28.2828 15.3355 27.7122 16.7178 27.7122 18.19C27.7122 19.6622 28.2828 21.0445 29.2819 22.0523L35.5061 28.635C35.6774 28.814 35.8827 28.9564 36.1099 29.0536C36.3371 29.1507 36.5814 29.2007 36.8283 29.2006C37.0751 29.2004 37.3194 29.1501 37.5464 29.0526C37.7735 28.9551 37.9787 28.8124 38.1497 28.6332L44.3411 22.0835C45.3748 21.0445 45.9436 19.6622 45.9436 18.19C45.9436 16.7178 45.373 15.3355 44.3429 14.2965C43.8367 13.7835 43.2344 13.3767 42.5709 13.0998C41.9075 12.8228 41.196 12.6811 40.4778 12.6829H40.4742ZM42.2973 18.19C42.2973 18.6801 42.1077 19.1409 41.7303 19.5209L36.8279 24.7067L31.8926 19.4878C31.5481 19.1409 31.3585 18.6801 31.3585 18.19C31.3585 17.6999 31.5481 17.2391 31.8945 16.8903C32.2242 16.5527 32.6731 16.36 33.1433 16.3543C33.1889 16.3561 34.0585 16.413 35.0886 17.2446C35.2363 17.3639 35.3858 17.4998 35.5389 17.6521L36.8279 18.95L38.1169 17.6521C38.27 17.4998 38.4195 17.3639 38.5672 17.2446C39.5316 16.4644 40.3466 16.3672 40.4851 16.3561C40.7227 16.3561 40.958 16.4034 41.1774 16.4954C41.3967 16.5874 41.5958 16.7223 41.7631 16.8922C42.1077 17.2391 42.2973 17.6999 42.2973 18.19Z" fill="url(#paint0_linear_219_1350)"/>
</g>
<defs>
<linearGradient id="paint0_linear_219_1350" x1="51.4136" y1="12.6829" x2="37.3121" y2="55.0108" gradientUnits="userSpaceOnUse">
<stop stop-color="#FF0000"/>
<stop offset="1" stop-color="#0066FF"/>
</linearGradient>
<clipPath id="clip0_219_1350">
<rect width="42" height="42" fill="white" transform="translate(15.0605 13)"/>
</clipPath>
</defs>
</svg>
