<svg width="65" height="65" viewBox="0 0 65 65" fill="none" xmlns="http://www.w3.org/2000/svg">
<circle cx="32.5" cy="32.5" r="32.5" fill="#2A335F"/>
<g style="mix-blend-mode:plus-lighter">
<path d="M18.5999 49H35.9157C36.9544 49.0006 37.9809 48.7774 38.9246 48.3458C39.8682 47.9143 40.7067 47.2846 41.3822 46.5001L50.5656 35.8492C50.7579 35.6265 50.8922 35.3603 50.9566 35.0739C51.021 34.7875 51.0136 34.4898 50.935 34.2069C50.8564 33.924 50.709 33.6647 50.5059 33.4518C50.3027 33.2389 50.05 33.0789 49.77 32.986L46.2277 31.8121C45.3715 31.5354 44.46 31.4728 43.5737 31.6298C42.6874 31.7868 41.8537 32.1586 41.1464 32.7122L35.4135 37.27L34.3029 35.06C33.7079 33.8687 32.7893 32.8669 31.6511 32.1679C30.5128 31.469 29.2004 31.1009 27.8626 31.1053H18.5999C16.6146 31.1053 15 32.7104 15 34.6842V45.4211C15 47.3948 16.6146 49 18.5999 49ZM18.5999 34.6842H27.8626C29.236 34.6842 30.469 35.4412 31.0827 36.6616L31.8873 38.2632H23.9999V41.8421H34.8249C35.1018 41.8385 35.3741 41.7711 35.6205 41.6453L35.6259 41.6435L35.6331 41.6399H35.6385L35.6421 41.6381H35.6493L35.6511 41.6363C35.6673 41.6417 35.6565 41.6345 35.6565 41.6345C35.6745 41.6345 35.6601 41.6327 35.6601 41.6327H35.6619L35.6655 41.631L35.6709 41.6292L35.6745 41.6274L35.6781 41.6256L35.6835 41.6238L35.6871 41.622C35.6925 41.622 35.6889 41.6202 35.6907 41.6202L35.6961 41.6166L35.6997 41.6148L35.7033 41.6131L35.7087 41.6113L35.7123 41.6095H35.7141L35.7177 41.6077L35.7231 41.6059L35.7267 41.6041C35.7429 41.6023 35.7321 41.6023 35.7321 41.6023L35.7357 41.6005C35.805 41.5589 35.8712 41.5123 35.9337 41.461L43.3963 35.5253C43.8679 35.1531 44.5177 35.0367 45.0883 35.2264L46.0909 35.5593L38.6516 44.1899C38.3094 44.5762 37.8885 44.8857 37.4168 45.098C36.9451 45.3103 36.4334 45.4204 35.9157 45.4211H18.5999V34.6842ZM40.1996 15H40.169C39.8756 15.0036 38.3582 15.0698 36.5997 16.2616C34.8879 15.102 33.4065 15.009 33.0573 15.0018L33.0033 15H32.9961C31.5543 15 30.1972 15.5601 29.182 16.5712C28.1632 17.5858 27.5998 18.9333 27.5998 20.3684C27.5998 21.8036 28.1632 23.1511 29.1496 24.1335L35.2947 30.5505C35.4637 30.725 35.6665 30.8638 35.8908 30.9585C36.1151 31.0532 36.3563 31.102 36.6 31.1018C36.8437 31.1016 37.0849 31.0526 37.3091 30.9575C37.5332 30.8625 37.7358 30.7235 37.9046 30.5487L44.0173 24.1639C45.0379 23.1511 45.5995 21.8036 45.5995 20.3684C45.5995 18.9333 45.0361 17.5858 44.0191 16.573C43.5193 16.0729 42.9247 15.6764 42.2697 15.4064C41.6147 15.1364 40.9123 14.9982 40.2032 15H40.1996ZM41.9996 20.3684C41.9996 20.8462 41.8124 21.2954 41.4398 21.6658L36.5997 26.7211L31.7271 21.6336C31.3869 21.2954 31.1997 20.8462 31.1997 20.3684C31.1997 19.8906 31.3869 19.4415 31.7289 19.1015C32.0544 18.7723 32.4976 18.5845 32.9619 18.579C33.0069 18.5808 33.8655 18.6362 34.8825 19.4469C35.0283 19.5632 35.1759 19.6956 35.3271 19.8441L36.5997 21.1093L37.8722 19.8441C38.0234 19.6956 38.171 19.5632 38.3168 19.4469C39.269 18.6863 40.0736 18.5915 40.2104 18.5808C40.445 18.5807 40.6773 18.6269 40.8939 18.7165C41.1104 18.8062 41.307 18.9377 41.4722 19.1033C41.8124 19.4415 41.9996 19.8906 41.9996 20.3684Z" fill="url(#paint0_linear_1049_1000)"/>
</g>
<g style="mix-blend-mode:screen">
<path d="M18.5999 49H35.9157C36.9544 49.0006 37.9809 48.7774 38.9246 48.3458C39.8682 47.9143 40.7067 47.2846 41.3822 46.5001L50.5656 35.8492C50.7579 35.6265 50.8922 35.3603 50.9566 35.0739C51.021 34.7875 51.0136 34.4898 50.935 34.2069C50.8564 33.924 50.709 33.6647 50.5059 33.4518C50.3027 33.2389 50.05 33.0789 49.77 32.986L46.2277 31.8121C45.3715 31.5354 44.46 31.4728 43.5737 31.6298C42.6874 31.7868 41.8537 32.1586 41.1464 32.7122L35.4135 37.27L34.3029 35.06C33.7079 33.8687 32.7893 32.8669 31.6511 32.1679C30.5128 31.469 29.2004 31.1009 27.8626 31.1053H18.5999C16.6146 31.1053 15 32.7104 15 34.6842V45.4211C15 47.3948 16.6146 49 18.5999 49ZM18.5999 34.6842H27.8626C29.236 34.6842 30.469 35.4412 31.0827 36.6616L31.8873 38.2632H23.9999V41.8421H34.8249C35.1018 41.8385 35.3741 41.7711 35.6205 41.6453L35.6259 41.6435L35.6331 41.6399H35.6385L35.6421 41.6381H35.6493L35.6511 41.6363C35.6673 41.6417 35.6565 41.6345 35.6565 41.6345C35.6745 41.6345 35.6601 41.6327 35.6601 41.6327H35.6619L35.6655 41.631L35.6709 41.6292L35.6745 41.6274L35.6781 41.6256L35.6835 41.6238L35.6871 41.622C35.6925 41.622 35.6889 41.6202 35.6907 41.6202L35.6961 41.6166L35.6997 41.6148L35.7033 41.6131L35.7087 41.6113L35.7123 41.6095H35.7141L35.7177 41.6077L35.7231 41.6059L35.7267 41.6041C35.7429 41.6023 35.7321 41.6023 35.7321 41.6023L35.7357 41.6005C35.805 41.5589 35.8712 41.5123 35.9337 41.461L43.3963 35.5253C43.8679 35.1531 44.5177 35.0367 45.0883 35.2264L46.0909 35.5593L38.6516 44.1899C38.3094 44.5762 37.8885 44.8857 37.4168 45.098C36.9451 45.3103 36.4334 45.4204 35.9157 45.4211H18.5999V34.6842ZM40.1996 15H40.169C39.8756 15.0036 38.3582 15.0698 36.5997 16.2616C34.8879 15.102 33.4065 15.009 33.0573 15.0018L33.0033 15H32.9961C31.5543 15 30.1972 15.5601 29.182 16.5712C28.1632 17.5858 27.5998 18.9333 27.5998 20.3684C27.5998 21.8036 28.1632 23.1511 29.1496 24.1335L35.2947 30.5505C35.4637 30.725 35.6665 30.8638 35.8908 30.9585C36.1151 31.0532 36.3563 31.102 36.6 31.1018C36.8437 31.1016 37.0849 31.0526 37.3091 30.9575C37.5332 30.8625 37.7358 30.7235 37.9046 30.5487L44.0173 24.1639C45.0379 23.1511 45.5995 21.8036 45.5995 20.3684C45.5995 18.9333 45.0361 17.5858 44.0191 16.573C43.5193 16.0729 42.9247 15.6764 42.2697 15.4064C41.6147 15.1364 40.9123 14.9982 40.2032 15H40.1996ZM41.9996 20.3684C41.9996 20.8462 41.8124 21.2954 41.4398 21.6658L36.5997 26.7211L31.7271 21.6336C31.3869 21.2954 31.1997 20.8462 31.1997 20.3684C31.1997 19.8906 31.3869 19.4415 31.7289 19.1015C32.0544 18.7723 32.4976 18.5845 32.9619 18.579C33.0069 18.5808 33.8655 18.6362 34.8825 19.4469C35.0283 19.5632 35.1759 19.6956 35.3271 19.8441L36.5997 21.1093L37.8722 19.8441C38.0234 19.6956 38.171 19.5632 38.3168 19.4469C39.269 18.6863 40.0736 18.5915 40.2104 18.5808C40.445 18.5807 40.6773 18.6269 40.8939 18.7165C41.1104 18.8062 41.307 18.9377 41.4722 19.1033C41.8124 19.4415 41.9996 19.8906 41.9996 20.3684Z" fill="url(#paint1_linear_1049_1000)"/>
</g>
<defs>
<linearGradient id="paint0_linear_1049_1000" x1="51" y1="15" x2="37.3929" y2="56.366" gradientUnits="userSpaceOnUse">
<stop stop-color="#FF0000"/>
<stop offset="1" stop-color="#0066FF"/>
</linearGradient>
<linearGradient id="paint1_linear_1049_1000" x1="51" y1="15" x2="37.3929" y2="56.366" gradientUnits="userSpaceOnUse">
<stop stop-color="#FF0000"/>
<stop offset="1" stop-color="#0066FF"/>
</linearGradient>
</defs>
</svg>
