<svg width="65" height="65" viewBox="0 0 65 65" fill="none" xmlns="http://www.w3.org/2000/svg">
<circle cx="32.5" cy="32.5" r="32.5" fill="white"/>
<path fill-rule="evenodd" clip-rule="evenodd" d="M16.1009 20.2946C17.0125 19.3831 18.2488 18.871 19.5379 18.871H45.4617C46.7508 18.871 47.9871 19.3831 48.8987 20.2946C49.8103 21.2062 50.3224 22.4425 50.3224 23.7317V43.1745C50.3224 44.4636 49.8103 45.6999 48.8987 46.6115C47.9871 47.523 46.7508 48.0352 45.4617 48.0352H19.5379C18.2488 48.0352 17.0125 47.523 16.1009 46.6115C15.1894 45.6999 14.6772 44.4636 14.6772 43.1745V23.7317C14.6772 22.4425 15.1894 21.2062 16.1009 20.2946ZM19.5379 22.1114H45.4617C45.8914 22.1114 46.3035 22.2821 46.6073 22.586C46.9112 22.8898 47.0819 23.302 47.0819 23.7317V43.1745C47.0819 43.6042 46.9112 44.0163 46.6073 44.3201C46.3035 44.624 45.8914 44.7947 45.4617 44.7947H19.5379C19.1082 44.7947 18.6961 44.624 18.3923 44.3201C18.0884 44.0163 17.9177 43.6042 17.9177 43.1745V23.7317C17.9177 23.302 18.0884 22.8898 18.3923 22.586C18.6961 22.2821 19.1082 22.1114 19.5379 22.1114ZM22.7786 25.352C22.3488 25.352 21.9367 25.5227 21.6329 25.8266C21.329 26.1304 21.1583 26.5425 21.1583 26.9722C21.1583 27.402 21.329 27.8141 21.6329 28.1179C21.9367 28.4218 22.3488 28.5925 22.7786 28.5925H29.2595C29.6892 28.5925 30.1013 28.4218 30.4052 28.1179C30.709 27.8141 30.8797 27.402 30.8797 26.9722C30.8797 26.5425 30.709 26.1304 30.4052 25.8266C30.1013 25.5227 29.6892 25.352 29.2595 25.352H22.7786ZM22.7786 31.8329C22.3488 31.8329 21.9367 32.0036 21.6329 32.3075C21.329 32.6113 21.1583 33.0235 21.1583 33.4532C21.1583 33.8829 21.329 34.295 21.6329 34.5988C21.9367 34.9027 22.3488 35.0734 22.7786 35.0734H29.2595C29.6892 35.0734 30.1013 34.9027 30.4052 34.5988C30.709 34.295 30.8797 33.8829 30.8797 33.4532C30.8797 33.0235 30.709 32.6113 30.4052 32.3075C30.1013 32.0036 29.6892 31.8329 29.2595 31.8329H22.7786ZM21.1583 39.9341C21.1583 39.5044 21.329 39.0923 21.6329 38.7884C21.9367 38.4846 22.3488 38.3139 22.7786 38.3139H29.2595C29.6892 38.3139 30.1013 38.4846 30.4052 38.7884C30.709 39.0923 30.8797 39.5044 30.8797 39.9341C30.8797 40.3638 30.709 40.7759 30.4052 41.0798C30.1013 41.3836 29.6892 41.5543 29.2595 41.5543H22.7786C22.3488 41.5543 21.9367 41.3836 21.6329 41.0798C21.329 40.7759 21.1583 40.3638 21.1583 39.9341ZM35.741 25.352C35.3113 25.352 34.8992 25.5227 34.5953 25.8266C34.2915 26.1304 34.1208 26.5425 34.1208 26.9722V39.9341C34.1208 40.3638 34.2915 40.7759 34.5953 41.0798C34.8992 41.3836 35.3113 41.5543 35.741 41.5543H42.2219C42.6516 41.5543 43.0638 41.3836 43.3676 41.0798C43.6715 40.7759 43.8422 40.3638 43.8422 39.9341V26.9722C43.8422 26.5425 43.6715 26.1304 43.3676 25.8266C43.0638 25.5227 42.6516 25.352 42.2219 25.352H35.741ZM40.6017 28.5925H37.3612V38.3139H40.6017V28.5925Z" fill="url(#paint0_linear_35_718)"/>
<defs>
<linearGradient id="paint0_linear_35_718" x1="50.3224" y1="18.871" x2="39.9586" y2="55.2395" gradientUnits="userSpaceOnUse">
<stop stop-color="#FF0000"/>
<stop offset="1" stop-color="#0066FF"/>
</linearGradient>
</defs>
</svg>
