<svg width="65" height="65" viewBox="0 0 65 65" fill="none" xmlns="http://www.w3.org/2000/svg">
<circle cx="32.5" cy="32.5007" r="32.5" fill="#2D2D2D"/>
<g style="mix-blend-mode:screen">
<path fill-rule="evenodd" clip-rule="evenodd" d="M16.0994 20.2953C17.011 19.3838 18.2473 18.8716 19.5365 18.8716H45.4602C46.7493 18.8716 47.9857 19.3838 48.8972 20.2953C49.8088 21.2069 50.3209 22.4432 50.3209 23.7323V43.1751C50.3209 44.4643 49.8088 45.7006 48.8972 46.6122C47.9857 47.5237 46.7493 48.0358 45.4602 48.0358H19.5365C18.2473 48.0358 17.011 47.5237 16.0994 46.6122C15.1879 45.7006 14.6758 44.4643 14.6758 43.1751V23.7323C14.6758 22.4432 15.1879 21.2069 16.0994 20.2953ZM19.5365 22.1121H45.4602C45.8899 22.1121 46.302 22.2828 46.6059 22.5867C46.9097 22.8905 47.0804 23.3026 47.0804 23.7323V43.1751C47.0804 43.6048 46.9097 44.017 46.6059 44.3208C46.302 44.6247 45.8899 44.7954 45.4602 44.7954H19.5365C19.1068 44.7954 18.6947 44.6247 18.3908 44.3208C18.0869 44.017 17.9162 43.6048 17.9162 43.1751V23.7323C17.9162 23.3026 18.0869 22.8905 18.3908 22.5867C18.6947 22.2828 19.1068 22.1121 19.5365 22.1121ZM22.7771 25.3527C22.3474 25.3527 21.9353 25.5234 21.6314 25.8272C21.3276 26.1311 21.1569 26.5432 21.1569 26.9729C21.1569 27.4026 21.3276 27.8147 21.6314 28.1186C21.9353 28.4224 22.3474 28.5931 22.7771 28.5931H29.258C29.6877 28.5931 30.0998 28.4224 30.4037 28.1186C30.7076 27.8147 30.8783 27.4026 30.8783 26.9729C30.8783 26.5432 30.7076 26.1311 30.4037 25.8272C30.0998 25.5234 29.6877 25.3527 29.258 25.3527H22.7771ZM22.7771 31.8336C22.3474 31.8336 21.9353 32.0043 21.6314 32.3082C21.3276 32.612 21.1569 33.0241 21.1569 33.4538C21.1569 33.8836 21.3276 34.2957 21.6314 34.5995C21.9353 34.9034 22.3474 35.0741 22.7771 35.0741H29.258C29.6877 35.0741 30.0998 34.9034 30.4037 34.5995C30.7076 34.2957 30.8783 33.8836 30.8783 33.4538C30.8783 33.0241 30.7076 32.612 30.4037 32.3082C30.0998 32.0043 29.6877 31.8336 29.258 31.8336H22.7771ZM21.1569 39.9348C21.1569 39.5051 21.3276 39.0929 21.6314 38.7891C21.9353 38.4852 22.3474 38.3145 22.7771 38.3145H29.258C29.6877 38.3145 30.0998 38.4852 30.4037 38.7891C30.7076 39.0929 30.8783 39.5051 30.8783 39.9348C30.8783 40.3645 30.7076 40.7766 30.4037 41.0805C30.0998 41.3843 29.6877 41.555 29.258 41.555H22.7771C22.3474 41.555 21.9353 41.3843 21.6314 41.0805C21.3276 40.7766 21.1569 40.3645 21.1569 39.9348ZM35.7395 25.3527C35.3098 25.3527 34.8977 25.5234 34.5939 25.8272C34.29 26.1311 34.1193 26.5432 34.1193 26.9729V39.9348C34.1193 40.3645 34.29 40.7766 34.5939 41.0805C34.8977 41.3843 35.3098 41.555 35.7395 41.555H42.2205C42.6502 41.555 43.0623 41.3843 43.3661 41.0805C43.67 40.7766 43.8407 40.3645 43.8407 39.9348V26.9729C43.8407 26.5432 43.67 26.1311 43.3661 25.8272C43.0623 25.5234 42.6502 25.3527 42.2205 25.3527H35.7395ZM40.6002 28.5931H37.3598V38.3145H40.6002V28.5931Z" fill="url(#paint0_linear_283_9619)"/>
</g>
<g style="mix-blend-mode:screen">
<path fill-rule="evenodd" clip-rule="evenodd" d="M16.0994 20.2953C17.011 19.3838 18.2473 18.8716 19.5365 18.8716H45.4602C46.7493 18.8716 47.9857 19.3838 48.8972 20.2953C49.8088 21.2069 50.3209 22.4432 50.3209 23.7323V43.1751C50.3209 44.4643 49.8088 45.7006 48.8972 46.6122C47.9857 47.5237 46.7493 48.0358 45.4602 48.0358H19.5365C18.2473 48.0358 17.011 47.5237 16.0994 46.6122C15.1879 45.7006 14.6758 44.4643 14.6758 43.1751V23.7323C14.6758 22.4432 15.1879 21.2069 16.0994 20.2953ZM19.5365 22.1121H45.4602C45.8899 22.1121 46.302 22.2828 46.6059 22.5867C46.9097 22.8905 47.0804 23.3026 47.0804 23.7323V43.1751C47.0804 43.6048 46.9097 44.017 46.6059 44.3208C46.302 44.6247 45.8899 44.7954 45.4602 44.7954H19.5365C19.1068 44.7954 18.6947 44.6247 18.3908 44.3208C18.0869 44.017 17.9162 43.6048 17.9162 43.1751V23.7323C17.9162 23.3026 18.0869 22.8905 18.3908 22.5867C18.6947 22.2828 19.1068 22.1121 19.5365 22.1121ZM22.7771 25.3527C22.3474 25.3527 21.9353 25.5234 21.6314 25.8272C21.3276 26.1311 21.1569 26.5432 21.1569 26.9729C21.1569 27.4026 21.3276 27.8147 21.6314 28.1186C21.9353 28.4224 22.3474 28.5931 22.7771 28.5931H29.258C29.6877 28.5931 30.0998 28.4224 30.4037 28.1186C30.7076 27.8147 30.8783 27.4026 30.8783 26.9729C30.8783 26.5432 30.7076 26.1311 30.4037 25.8272C30.0998 25.5234 29.6877 25.3527 29.258 25.3527H22.7771ZM22.7771 31.8336C22.3474 31.8336 21.9353 32.0043 21.6314 32.3082C21.3276 32.612 21.1569 33.0241 21.1569 33.4538C21.1569 33.8836 21.3276 34.2957 21.6314 34.5995C21.9353 34.9034 22.3474 35.0741 22.7771 35.0741H29.258C29.6877 35.0741 30.0998 34.9034 30.4037 34.5995C30.7076 34.2957 30.8783 33.8836 30.8783 33.4538C30.8783 33.0241 30.7076 32.612 30.4037 32.3082C30.0998 32.0043 29.6877 31.8336 29.258 31.8336H22.7771ZM21.1569 39.9348C21.1569 39.5051 21.3276 39.0929 21.6314 38.7891C21.9353 38.4852 22.3474 38.3145 22.7771 38.3145H29.258C29.6877 38.3145 30.0998 38.4852 30.4037 38.7891C30.7076 39.0929 30.8783 39.5051 30.8783 39.9348C30.8783 40.3645 30.7076 40.7766 30.4037 41.0805C30.0998 41.3843 29.6877 41.555 29.258 41.555H22.7771C22.3474 41.555 21.9353 41.3843 21.6314 41.0805C21.3276 40.7766 21.1569 40.3645 21.1569 39.9348ZM35.7395 25.3527C35.3098 25.3527 34.8977 25.5234 34.5939 25.8272C34.29 26.1311 34.1193 26.5432 34.1193 26.9729V39.9348C34.1193 40.3645 34.29 40.7766 34.5939 41.0805C34.8977 41.3843 35.3098 41.555 35.7395 41.555H42.2205C42.6502 41.555 43.0623 41.3843 43.3661 41.0805C43.67 40.7766 43.8407 40.3645 43.8407 39.9348V26.9729C43.8407 26.5432 43.67 26.1311 43.3661 25.8272C43.0623 25.5234 42.6502 25.3527 42.2205 25.3527H35.7395ZM40.6002 28.5931H37.3598V38.3145H40.6002V28.5931Z" fill="url(#paint1_linear_283_9619)"/>
</g>
<defs>
<linearGradient id="paint0_linear_283_9619" x1="50.3209" y1="18.8716" x2="39.9571" y2="55.2402" gradientUnits="userSpaceOnUse">
<stop stop-color="#FF0000"/>
<stop offset="1" stop-color="#0066FF"/>
</linearGradient>
<linearGradient id="paint1_linear_283_9619" x1="50.3209" y1="18.8716" x2="39.9571" y2="55.2402" gradientUnits="userSpaceOnUse">
<stop stop-color="#FF0000"/>
<stop offset="1" stop-color="#0066FF"/>
</linearGradient>
</defs>
</svg>
