<svg width="80" height="80" viewBox="0 0 80 80" fill="none" xmlns="http://www.w3.org/2000/svg">
<path d="M36.8 52.8H43.2V39.36L48.32 44.48L52.8 40L40 27.2L27.2 40L31.68 44.48L36.8 39.36V52.8ZM40 72C35.5733 72 31.4133 71.1595 27.52 69.4784C23.6267 67.7995 20.24 65.52 17.36 62.64C14.48 59.76 12.2005 56.3733 10.5216 52.48C8.84053 48.5867 8 44.4267 8 40C8 35.5733 8.84053 31.4133 10.5216 27.52C12.2005 23.6267 14.48 20.24 17.36 17.36C20.24 14.48 23.6267 12.1995 27.52 10.5184C31.4133 8.83947 35.5733 8 40 8C44.4267 8 48.5867 8.83947 52.48 10.5184C56.3733 12.1995 59.76 14.48 62.64 17.36C65.52 20.24 67.7995 23.6267 69.4784 27.52C71.1595 31.4133 72 35.5733 72 40C72 44.4267 71.1595 48.5867 69.4784 52.48C67.7995 56.3733 65.52 59.76 62.64 62.64C59.76 65.52 56.3733 67.7995 52.48 69.4784C48.5867 71.1595 44.4267 72 40 72ZM40 65.6C47.1467 65.6 53.2 63.12 58.16 58.16C63.12 53.2 65.6 47.1467 65.6 40C65.6 32.8533 63.12 26.8 58.16 21.84C53.2 16.88 47.1467 14.4 40 14.4C32.8533 14.4 26.8 16.88 21.84 21.84C16.88 26.8 14.4 32.8533 14.4 40C14.4 47.1467 16.88 53.2 21.84 58.16C26.8 63.12 32.8533 65.6 40 65.6Z" fill="url(#paint0_linear_169_467)"/>
<defs>
<linearGradient id="paint0_linear_169_467" x1="72" y1="8" x2="45.1969" y2="84.9554" gradientUnits="userSpaceOnUse">
<stop stop-color="#FF0000"/>
<stop offset="1" stop-color="#0066FF"/>
</linearGradient>
</defs>
</svg>
