<svg width="65" height="65" viewBox="0 0 65 65" fill="none" xmlns="http://www.w3.org/2000/svg">
<circle cx="32.5" cy="32.5" r="32.5" fill="white"/>
<path d="M26.2124 32.4999L29.1333 29.579C29.5294 29.183 29.7274 28.7209 29.7274 28.1928C29.7274 27.6647 29.5294 27.2027 29.1333 26.8066C28.7373 26.4106 28.2673 26.2125 27.7234 26.2125C27.1781 26.2125 26.7075 26.4106 26.3114 26.8066L22.0043 31.1137C21.8063 31.3118 21.6663 31.5263 21.5845 31.7573C21.5013 31.9884 21.4597 32.2359 21.4597 32.4999C21.4597 32.764 21.5013 33.0115 21.5845 33.2426C21.6663 33.4736 21.8063 33.6881 22.0043 33.8861L26.3114 38.1933C26.7075 38.5893 27.1781 38.7874 27.7234 38.7874C28.2673 38.7874 28.7373 38.5893 29.1333 38.1933C29.5294 37.7972 29.7274 37.3351 29.7274 36.8071C29.7274 36.279 29.5294 35.8169 29.1333 35.4209L26.2124 32.4999ZM38.7872 32.4999L35.8663 35.4209C35.4703 35.8169 35.2722 36.279 35.2722 36.8071C35.2722 37.3351 35.4703 37.7972 35.8663 38.1933C36.2624 38.5893 36.733 38.7874 37.2783 38.7874C37.8222 38.7874 38.2922 38.5893 38.6882 38.1933L42.9953 33.8861C43.1934 33.6881 43.3333 33.4736 43.4152 33.2426C43.4983 33.0115 43.5399 32.764 43.5399 32.4999C43.5399 32.2359 43.4983 31.9884 43.4152 31.7573C43.3333 31.5263 43.1934 31.3118 42.9953 31.1137L38.6882 26.8066C38.4902 26.6086 38.2677 26.4601 38.0209 26.3611C37.7727 26.262 37.5251 26.2125 37.2783 26.2125C37.0301 26.2125 36.7825 26.262 36.5357 26.3611C36.2875 26.4601 36.0643 26.6086 35.8663 26.8066C35.4703 27.2027 35.2722 27.6647 35.2722 28.1928C35.2722 28.7209 35.4703 29.183 35.8663 29.579L38.7872 32.4999ZM18.6378 50.3225C17.5487 50.3225 16.6159 49.9351 15.8397 49.1601C15.0647 48.3838 14.6772 47.4511 14.6772 46.362V18.6379C14.6772 17.5488 15.0647 16.6161 15.8397 15.8398C16.6159 15.0648 17.5487 14.6774 18.6378 14.6774H46.3618C47.451 14.6774 48.3837 15.0648 49.16 15.8398C49.9349 16.6161 50.3224 17.5488 50.3224 18.6379V46.362C50.3224 47.4511 49.9349 48.3838 49.16 49.1601C48.3837 49.9351 47.451 50.3225 46.3618 50.3225H18.6378ZM18.6378 46.362H46.3618V18.6379H18.6378V46.362Z" fill="url(#paint0_linear_35_726)"/>
<defs>
<linearGradient id="paint0_linear_35_726" x1="50.3224" y1="14.6774" x2="35.3943" y2="57.5381" gradientUnits="userSpaceOnUse">
<stop stop-color="#FF0000"/>
<stop offset="1" stop-color="#0066FF"/>
</linearGradient>
</defs>
</svg>
