<svg width="66" height="65" viewBox="0 0 66 65" fill="none" xmlns="http://www.w3.org/2000/svg">
<circle cx="32.833" cy="32.5" r="32.5" fill="white"/>
<path d="M33.1251 46.3333C33.2362 46.3333 33.3473 46.3055 33.4584 46.2499C33.5695 46.1944 33.6528 46.1388 33.7084 46.0833L47.3751 32.4166C47.7084 32.0833 47.9517 31.7083 48.1051 31.2916C48.2584 30.8749 48.3345 30.4583 48.3334 30.0416C48.3334 29.5971 48.2567 29.1733 48.1034 28.7699C47.9501 28.3666 47.7073 28.0127 47.3751 27.7083L40.2917 20.6249C39.9862 20.2916 39.6317 20.0483 39.2284 19.8949C38.8251 19.7416 38.4023 19.6655 37.9601 19.6666C37.5434 19.6666 37.1267 19.7433 36.7101 19.8966C36.2934 20.0499 35.9184 20.2927 35.5851 20.6249L35.1267 21.0833L38.2101 24.2083C38.6267 24.5971 38.9323 25.0416 39.1267 25.5416C39.3212 26.0416 39.4184 26.5694 39.4184 27.1249C39.4184 28.2916 39.0228 29.271 38.2317 30.0633C37.4406 30.8555 36.4612 31.251 35.2934 31.2499C34.7378 31.2499 34.2028 31.1527 33.6884 30.9583C33.174 30.7638 32.7228 30.4721 32.3351 30.0833L29.2084 26.9999L21.9167 34.2916C21.8334 34.3749 21.7706 34.4655 21.7284 34.5633C21.6862 34.661 21.6656 34.7644 21.6667 34.8733C21.6667 35.0955 21.7501 35.2971 21.9167 35.4783C22.0834 35.6594 22.2778 35.7494 22.5001 35.7483C22.6112 35.7483 22.7223 35.7205 22.8334 35.6649C22.9445 35.6094 23.0278 35.5538 23.0834 35.4983L28.7501 29.8316L31.0834 32.1649L25.4584 37.8316C25.3751 37.9149 25.3123 38.0055 25.2701 38.1033C25.2278 38.201 25.2073 38.3049 25.2084 38.4149C25.2084 38.6371 25.2917 38.8316 25.4584 38.9983C25.6251 39.1649 25.8195 39.2483 26.0417 39.2483C26.1528 39.2483 26.264 39.2205 26.3751 39.1649C26.4862 39.1094 26.5695 39.0538 26.6251 38.9983L32.2917 33.3733L34.6251 35.7066L29.0001 41.3733C28.9167 41.4288 28.854 41.5121 28.8117 41.6233C28.7695 41.7344 28.749 41.8455 28.7501 41.9566C28.7501 42.1788 28.8334 42.3733 29.0001 42.5399C29.1667 42.7066 29.3612 42.7899 29.5834 42.7899C29.6945 42.7899 29.799 42.7688 29.8967 42.7266C29.9945 42.6844 30.0845 42.6221 30.1667 42.5399L35.8334 36.9149L38.1667 39.2483L32.5001 44.9149C32.4167 44.9983 32.354 45.0883 32.3117 45.1849C32.2695 45.2816 32.249 45.386 32.2501 45.4983C32.2501 45.7205 32.3406 45.9149 32.5217 46.0816C32.7028 46.2483 32.904 46.3333 33.1251 46.3333ZM33.0834 49.6666C32.0556 49.6666 31.1456 49.326 30.3534 48.6449C29.5612 47.9638 29.0962 47.1099 28.9584 46.0833C28.014 45.9444 27.2223 45.5555 26.5834 44.9166C25.9445 44.2777 25.5556 43.486 25.4167 42.5416C24.4723 42.4027 23.6873 42.0066 23.0617 41.3533C22.4362 40.6999 22.0545 39.9155 21.9167 38.9999C20.8612 38.861 20.0001 38.4027 19.3334 37.6249C18.6667 36.8471 18.3334 35.9305 18.3334 34.8749C18.3334 34.3194 18.4378 33.7849 18.6467 33.2716C18.8556 32.7583 19.154 32.3066 19.5417 31.9166L29.2084 22.2916L34.6667 27.7499C34.7223 27.8333 34.8056 27.896 34.9167 27.9383C35.0278 27.9805 35.139 28.001 35.2501 27.9999C35.5001 27.9999 35.7084 27.9238 35.8751 27.7716C36.0417 27.6194 36.1251 27.4177 36.1251 27.1666C36.1251 27.0555 36.104 26.9444 36.0617 26.8333C36.0195 26.7221 35.9573 26.6388 35.8751 26.5833L29.9167 20.6249C29.6112 20.2916 29.2573 20.0483 28.8551 19.8949C28.4528 19.7416 28.029 19.6655 27.5834 19.6666C27.1667 19.6666 26.7501 19.7433 26.3334 19.8966C25.9167 20.0499 25.5417 20.2927 25.2084 20.6249L19.3334 26.5416C19.0834 26.7916 18.8751 27.0833 18.7084 27.4166C18.5417 27.7499 18.4306 28.0833 18.3751 28.4166C18.3195 28.7499 18.3195 29.0905 18.3751 29.4383C18.4306 29.786 18.5417 30.1121 18.7084 30.4166L16.2917 32.8333C15.8195 32.1944 15.4723 31.4933 15.2501 30.7299C15.0278 29.9666 14.9445 29.1955 15.0001 28.4166C15.0556 27.6388 15.2501 26.8816 15.5834 26.1449C15.9167 25.4083 16.3751 24.7488 16.9584 24.1666L22.8334 18.2916C23.5001 17.6527 24.2434 17.1666 25.0634 16.8333C25.8834 16.4999 26.7234 16.3333 27.5834 16.3333C28.4445 16.3333 29.2851 16.4999 30.1051 16.8333C30.9251 17.1666 31.654 17.6527 32.2917 18.2916L32.7501 18.7499L33.2084 18.2916C33.8751 17.6527 34.6184 17.1666 35.4384 16.8333C36.2584 16.4999 37.0984 16.3333 37.9584 16.3333C38.8195 16.3333 39.6601 16.4999 40.4801 16.8333C41.3001 17.1666 42.029 17.6527 42.6667 18.2916L49.7084 25.3333C50.3473 25.9721 50.8334 26.7083 51.1667 27.5416C51.5001 28.3749 51.6667 29.2221 51.6667 30.0833C51.6667 30.9444 51.5001 31.7849 51.1667 32.6049C50.8334 33.4249 50.3473 34.1538 49.7084 34.7916L36.0417 48.4166C35.6528 48.8055 35.2012 49.111 34.6867 49.3333C34.1723 49.5555 33.6378 49.6666 33.0834 49.6666Z" fill="url(#paint0_linear_219_1415)"/>
<defs>
<linearGradient id="paint0_linear_219_1415" x1="51.6667" y1="16.3333" x2="38.7378" y2="57.1846" gradientUnits="userSpaceOnUse">
<stop stop-color="#FF0000"/>
<stop offset="1" stop-color="#0066FF"/>
</linearGradient>
</defs>
</svg>
