<svg width="40" height="40" viewBox="0 0 40 40" fill="none" xmlns="http://www.w3.org/2000/svg">
<path d="M32.8 9.4H26.4V6.2C26.4 4.44 24.96 3 23.2 3H16.8C15.04 3 13.6 4.44 13.6 6.2V9.4H7.2C5.44 9.4 4 10.84 4 12.6V31.8C4 33.56 5.44 35 7.2 35H32.8C34.56 35 36 33.56 36 31.8V12.6C36 10.84 34.56 9.4 32.8 9.4ZM16.8 6.2H23.2V9.4H16.8V6.2ZM32.8 31.8H7.2V12.6H32.8V31.8Z" fill="#0E5EF1"/>
<path d="M21.5996 15.8H18.3996V20.6H13.5996V23.8H18.3996V28.6H21.5996V23.8H26.3996V20.6H21.5996V15.8Z" fill="#0E5EF1"/>
</svg>
