<svg width="224" height="49" viewBox="0 0 224 49" fill="none" xmlns="http://www.w3.org/2000/svg">
<path fill-rule="evenodd" clip-rule="evenodd" d="M24.5 46.2778C36.5275 46.2778 46.2778 36.5275 46.2778 24.5C46.2778 12.4725 36.5275 2.72222 24.5 2.72222C12.4725 2.72222 2.72222 12.4725 2.72222 24.5C2.72222 36.5275 12.4725 46.2778 24.5 46.2778ZM24.5 49C38.031 49 49 38.031 49 24.5C49 10.969 38.031 0 24.5 0C10.969 0 0 10.969 0 24.5C0 38.031 10.969 49 24.5 49Z" fill="#201F1F"/>
<path d="M62.0394 35.3889V16.0067H64.8433L72.166 32.6939H70.8321L78.1005 16.0067H80.9044V35.3889H77.7738L77.7466 21.0428L78.6721 21.2605L72.6288 35.3889H70.3149L64.1355 21.2605L65.1155 21.0428L65.1427 35.3889H62.0394Z" fill="#201F1F"/>
<path d="M88.7337 35.3889H85.1948L93.9604 16.0067H96.8187L105.584 35.3889H102.1L94.9676 18.7289H95.9204L88.7337 35.3889ZM89.0604 30.8428L90.3943 28.1205H100.276L101.555 30.8428H89.0604Z" fill="#201F1F"/>
<path d="M118.367 35.6067C116.352 35.6067 114.61 35.2165 113.14 34.4361C111.688 33.6376 110.572 32.5033 109.792 31.0333C109.03 29.5452 108.648 27.7576 108.648 25.6705C108.648 23.6198 109.03 21.8594 109.792 20.3894C110.572 18.9013 111.679 17.767 113.113 16.9867C114.547 16.1881 116.243 15.7889 118.203 15.7889C119.565 15.7889 120.835 15.9794 122.015 16.3605C123.194 16.7417 124.192 17.3042 125.009 18.0483L123.811 20.6072C122.886 19.8994 121.987 19.3913 121.116 19.0828C120.245 18.7561 119.292 18.5928 118.258 18.5928C116.28 18.5928 114.773 19.1917 113.739 20.3894C112.723 21.5872 112.215 23.3476 112.215 25.6705C112.215 28.048 112.741 29.8446 113.793 31.0605C114.846 32.2583 116.416 32.8572 118.503 32.8572C119.301 32.8572 120.082 32.7937 120.844 32.6667C121.624 32.5215 122.359 32.3218 123.049 32.0678L122.232 33.3744V27.44H118.067V24.9083H125.417V34.2183C124.818 34.5268 124.138 34.7809 123.376 34.9805C122.613 35.1802 121.806 35.3344 120.953 35.4433C120.1 35.5522 119.238 35.6067 118.367 35.6067Z" fill="#201F1F"/>
<path d="M131.576 35.3889V16.0067H134.189L145.35 30.5161L144.615 30.8972V16.0067H147.909V35.3889H145.269L134.162 20.9339L134.87 20.4983V35.3889H131.576Z" fill="#201F1F"/>
<path d="M162.906 35.6067C161.018 35.6067 159.385 35.2074 158.006 34.4089C156.626 33.6104 155.565 32.467 154.821 30.9789C154.076 29.4907 153.704 27.7304 153.704 25.6978C153.704 23.647 154.076 21.8867 154.821 20.4167C155.565 18.9285 156.626 17.7852 158.006 16.9867C159.385 16.1881 161.018 15.7889 162.906 15.7889C164.811 15.7889 166.454 16.1881 167.833 16.9867C169.212 17.7852 170.274 18.9285 171.018 20.4167C171.762 21.8867 172.134 23.638 172.134 25.6705C172.134 27.7213 171.753 29.4907 170.991 30.9789C170.247 32.467 169.185 33.6104 167.806 34.4089C166.444 35.2074 164.811 35.6067 162.906 35.6067ZM162.906 32.83C164.684 32.83 166.082 32.222 167.098 31.0061C168.114 29.772 168.622 27.9935 168.622 25.6705C168.622 23.3476 168.114 21.5872 167.098 20.3894C166.082 19.1735 164.684 18.5655 162.906 18.5655C161.145 18.5655 159.757 19.1735 158.741 20.3894C157.724 21.5872 157.216 23.3476 157.216 25.6705C157.216 27.9935 157.724 29.772 158.741 31.0061C159.757 32.222 161.145 32.83 162.906 32.83Z" fill="#201F1F"/>
<path d="M177.908 35.3889V16.0067H181.42V32.5033H190.457V35.3889H177.908Z" fill="#201F1F"/>
<path d="M195.319 35.3889V16.0067H198.83V35.3889H195.319Z" fill="#201F1F"/>
<path d="M206.675 35.3889H203.136L211.902 16.0067H214.76L223.526 35.3889H220.041L212.909 18.7289H213.862L206.675 35.3889ZM207.002 30.8428L208.336 28.1205H218.217L219.497 30.8428H207.002Z" fill="#201F1F"/>
<path d="M24.5382 38.5358C23.4294 38.5358 22.5918 38.2527 22.0256 37.6865C21.4594 37.1202 21.1763 36.3535 21.1763 35.3862C21.1763 34.7964 21.2825 34.1947 21.4948 33.5813C21.7307 32.9679 22.0964 32.2248 22.5918 31.3518C23.0873 30.4553 23.7243 29.3347 24.5028 27.9899L30.519 17.6917H18.9114C18.5575 17.6917 18.2744 17.7861 18.0621 17.9748C17.8733 18.14 17.6846 18.5057 17.4958 19.0719C17.3071 19.6145 17.024 20.4403 16.6465 21.5491H15.4079L17.7436 12.7727H34.341V14.5421L29.245 23.3186C28.4428 24.6869 27.8648 25.8902 27.5109 26.9282C27.1806 27.9427 27.0155 28.8628 27.0155 29.6886C27.0155 30.3256 27.0744 30.9154 27.1924 31.458C27.3104 31.977 27.4401 32.4725 27.5817 32.9443C27.7232 33.3926 27.853 33.8409 27.971 34.2891C28.0889 34.7138 28.1479 35.1385 28.1479 35.5631C28.1479 36.5776 27.794 37.3326 27.0862 37.828C26.3785 38.2999 25.5291 38.5358 24.5382 38.5358Z" fill="#201F1F"/>
</svg>
