<svg width="66" height="65" viewBox="0 0 66 65" fill="none" xmlns="http://www.w3.org/2000/svg">
<circle cx="32.833" cy="32.5" r="32.5" fill="white"/>
<path d="M34.8785 18C36.6626 18 38.3738 18.7193 39.6354 19.9997C40.897 21.2801 41.6057 23.0166 41.6057 24.8274C41.6057 26.6381 40.897 28.3747 39.6354 29.6551C38.3738 30.9355 36.6626 31.6548 34.8785 31.6548C33.0943 31.6548 31.3832 30.9355 30.1216 29.6551C28.86 28.3747 28.1512 26.6381 28.1512 24.8274C28.1512 23.0166 28.86 21.2801 30.1216 19.9997C31.3832 18.7193 33.0943 18 34.8785 18ZM34.8785 21.243C33.9418 21.243 33.0434 21.6206 32.3811 22.2928C31.7187 22.965 31.3466 23.8767 31.3466 24.8274C31.3466 25.778 31.7187 26.6897 32.3811 27.3619C33.0434 28.0341 33.9418 28.4118 34.8785 28.4118C35.8152 28.4118 36.7135 28.0341 37.3758 27.3619C38.0382 26.6897 38.4103 25.778 38.4103 24.8274C38.4103 23.8767 38.0382 22.965 37.3758 22.2928C36.7135 21.6206 35.8152 21.243 34.8785 21.243ZM34.8785 33.3616C39.3689 33.3616 48.333 35.6317 48.333 40.189V45.3095H21.4239V40.189C21.4239 35.6317 30.388 33.3616 34.8785 33.3616ZM34.8785 36.6046C29.833 36.6046 24.6194 39.0966 24.6194 40.189V42.0665H45.1376V40.189C45.1376 39.0966 39.8735 36.6046 34.8785 36.6046ZM18.0603 33.8395L13.8557 36.3827L14.9994 31.5865L11.333 28.3776L16.1598 27.9509L18.0603 23.4448L19.9271 27.9509L24.7876 28.3776L21.0876 31.5865L22.1807 36.3827L18.0603 33.8395Z" fill="url(#paint0_linear_219_1426)"/>
<defs>
<linearGradient id="paint0_linear_219_1426" x1="48.333" y1="18" x2="39.454" y2="52.5387" gradientUnits="userSpaceOnUse">
<stop stop-color="#FF0000"/>
<stop offset="1" stop-color="#0066FF"/>
</linearGradient>
</defs>
</svg>
