<svg width="40" height="40" viewBox="0 0 40 40" fill="none" xmlns="http://www.w3.org/2000/svg">
<path d="M25.1704 18.361V18.3786M7.83656 13.736C7.06291 13.1414 6.46873 12.3445 6.11969 11.4333C5.77064 10.5221 5.68033 9.5322 5.85873 8.5729C6.03713 7.6136 6.47729 6.7223 7.13056 5.99751C7.78384 5.27273 8.6248 4.74268 9.56048 4.46596C10.4962 4.18923 11.4901 4.1766 12.4326 4.42946C13.375 4.68233 14.2291 5.19083 14.9006 5.89878C15.5721 6.60674 16.0348 7.48656 16.2375 8.44102C16.4402 9.39548 16.3751 10.3874 16.0493 11.3072" stroke="#0E5EF1" stroke-width="4" stroke-linecap="round" stroke-linejoin="round"/>
<path d="M26.9342 6.0137V12.7218C29.1172 13.985 30.7792 15.9841 31.6226 18.361H33.988C34.4558 18.361 34.9045 18.5468 35.2353 18.8776C35.5661 19.2084 35.7519 19.6571 35.7519 20.1249V23.6527C35.7519 24.1205 35.5661 24.5692 35.2353 24.9C34.9045 25.2308 34.4558 25.4166 33.988 25.4166H31.6208C31.0282 27.0923 30.021 28.5916 28.6963 29.7787V33.3541C28.6963 34.0559 28.4175 34.7288 27.9213 35.225C27.4252 35.7212 26.7522 36 26.0504 36C25.3487 36 24.6757 35.7212 24.1796 35.225C23.6834 34.7288 23.4046 34.0559 23.4046 33.3541V32.3258C22.8217 32.4234 22.2317 32.4724 21.6407 32.4722H14.5851C13.9941 32.4724 13.4041 32.4234 12.8212 32.3258V33.3541C12.8212 34.0559 12.5424 34.7288 12.0463 35.225C11.5501 35.7212 10.8771 36 10.1754 36C9.47363 36 8.80065 35.7212 8.30446 35.225C7.80826 34.7288 7.52951 34.0559 7.52951 33.3541V29.7787C5.93135 28.3499 4.80477 26.4694 4.29889 24.3862C3.79302 22.303 3.9317 20.1153 4.69658 18.1127C5.46146 16.11 6.81647 14.3869 8.58226 13.1713C10.3481 11.9557 12.4414 11.3051 14.5851 11.3054H18.9949L26.9324 6.0137H26.9342Z" stroke="#0E5EF1" stroke-width="4" stroke-linecap="round" stroke-linejoin="round"/>
</svg>
