<svg width="78" height="78" viewBox="0 0 78 78" fill="none" xmlns="http://www.w3.org/2000/svg">
<circle cx="39" cy="39" r="39" fill="#1C2551"/>
<path fill-rule="evenodd" clip-rule="evenodd" d="M40.1751 20.5552C40.7593 21.1394 40.7593 22.0867 40.1751 22.6709L36.2853 26.5607C36.1174 26.7286 35.9196 26.8482 35.7091 26.9196C36.3662 27.9389 36.7235 29.1335 36.7235 30.365C36.7235 32.0514 36.0536 33.6686 34.8612 34.861C33.6688 36.0534 32.0515 36.7233 30.3652 36.7233C28.6789 36.7233 27.0617 36.0534 25.8692 34.861C24.6768 33.6686 24.007 32.0514 24.007 30.365C24.007 28.6787 24.6768 27.0615 25.8692 25.8691C27.0617 24.6767 28.6789 24.0068 30.3652 24.0068C31.5967 24.0068 32.7914 24.364 33.8107 25.0212C33.8821 24.8106 34.0017 24.6128 34.1695 24.445L38.0593 20.5552C38.6436 19.9709 39.5908 19.9709 40.1751 20.5552ZM47.2629 21.9793C48.4554 20.7869 50.0726 20.117 51.7589 20.117C53.4452 20.117 55.0625 20.7869 56.2549 21.9793C57.4473 23.1717 58.1172 24.789 58.1172 26.4753C58.1172 28.1616 57.4473 29.7788 56.2549 30.9712C55.0625 32.1637 53.4452 32.8335 51.7589 32.8335C50.5274 32.8335 49.3327 32.4763 48.3135 31.8191C48.2421 32.0297 48.1224 32.2275 47.9546 32.3954L32.3955 47.9544C32.2277 48.1223 32.0299 48.2419 31.8193 48.3133C32.4765 49.3326 32.8337 50.5272 32.8337 51.7587C32.8337 53.4451 32.1638 55.0623 30.9714 56.2547C29.779 57.4471 28.1618 58.117 26.4755 58.117C24.7891 58.117 23.1719 57.4471 21.9795 56.2547C20.7871 55.0623 20.1172 53.4451 20.1172 51.7587C20.1172 50.0724 20.7871 48.4552 21.9795 47.2628C23.1719 46.0704 24.7891 45.4005 26.4755 45.4005C27.707 45.4005 28.9016 45.7577 29.9209 46.4149C29.9923 46.2043 30.1119 46.0065 30.2798 45.8387L45.8388 30.2796C46.0067 30.1117 46.2045 29.9921 46.4151 29.9207C45.7579 28.9015 45.4007 27.7068 45.4007 26.4753C45.4007 24.789 46.0705 23.1717 47.2629 21.9793ZM51.7589 23.1091C50.8662 23.1091 50.01 23.4638 49.3787 24.0951C48.7474 24.7263 48.3928 25.5825 48.3928 26.4753C48.3928 27.368 48.7474 28.2242 49.3787 28.8555C50.01 29.4868 50.8662 29.8414 51.7589 29.8414C52.6517 29.8414 53.5079 29.4868 54.1391 28.8555C54.7704 28.2242 55.1251 27.368 55.1251 26.4753C55.1251 25.5825 54.7704 24.7263 54.1391 24.0951C53.5079 23.4638 52.6517 23.1091 51.7589 23.1091ZM30.3652 26.9989C29.4725 26.9989 28.6163 27.3535 27.985 27.9848C27.3537 28.6161 26.9991 29.4723 26.9991 30.365C26.9991 31.2578 27.3537 32.114 27.985 32.7453C28.6163 33.3765 29.4725 33.7312 30.3652 33.7312C31.258 33.7312 32.1142 33.3765 32.7454 32.7453C33.3767 32.114 33.7314 31.2578 33.7314 30.365C33.7314 29.4723 33.3767 28.6161 32.7454 27.9848C32.1142 27.3535 31.258 26.9989 30.3652 26.9989ZM43.3732 43.373C44.5656 42.1806 46.1828 41.5107 47.8692 41.5107C49.5555 41.5107 51.1727 42.1806 52.3651 43.373C53.5575 44.5654 54.2274 46.1827 54.2274 47.869C54.2274 49.5553 53.5575 51.1725 52.3651 52.3649C51.1727 53.5574 49.5555 54.2272 47.8692 54.2272C46.6376 54.2272 45.443 53.87 44.4237 53.2128C44.3523 53.4234 44.2327 53.6212 44.0648 53.7891L40.1751 57.6788C39.5908 58.2631 38.6436 58.2631 38.0593 57.6788C37.4751 57.0946 37.4751 56.1473 38.0593 55.5631L41.9491 51.6733C42.1169 51.5055 42.3147 51.3858 42.5253 51.3144C41.8682 50.2952 41.5109 49.1005 41.5109 47.869C41.5109 46.1827 42.1808 44.5654 43.3732 43.373ZM47.8692 44.5028C46.9764 44.5028 46.1202 44.8575 45.4889 45.4888C44.8577 46.12 44.503 46.9762 44.503 47.869C44.503 48.7617 44.8577 49.6179 45.4889 50.2492C46.1202 50.8805 46.9764 51.2351 47.8692 51.2351C48.7619 51.2351 49.6181 50.8805 50.2494 50.2492C50.8807 49.6179 51.2353 48.7617 51.2353 47.869C51.2353 46.9762 50.8807 46.12 50.2494 45.4888C49.6181 44.8575 48.7619 44.5028 47.8692 44.5028ZM26.4755 48.3926C25.5827 48.3926 24.7265 48.7472 24.0952 49.3785C23.464 50.0098 23.1093 50.866 23.1093 51.7587C23.1093 52.6515 23.464 53.5077 24.0952 54.139C24.7265 54.7702 25.5827 55.1249 26.4755 55.1249C27.3682 55.1249 28.2244 54.7702 28.8557 54.139C29.487 53.5077 29.8416 52.6515 29.8416 51.7587C29.8416 50.866 29.487 50.0098 28.8557 49.3785C28.2244 48.7472 27.3682 48.3926 26.4755 48.3926Z" fill="#F1F1F1"/>
</svg>
